<?xml version="1.0" standalone="no"?>
<!DOCTYPE svg PUBLIC "-//W3C//DTD SVG 1.1//EN" "http://www.w3.org/Graphics/SVG/1.1/DTD/svg11.dtd" >
<svg xmlns="http://www.w3.org/2000/svg">
<metadata>Generated by IcoMoon</metadata>
<defs>
<font id="icomoon" horiz-adv-x="1024">
<font-face units-per-em="1024" ascent="960" descent="-64" />
<missing-glyph horiz-adv-x="1024" />
<glyph unicode="&#x20;" horiz-adv-x="512" d="" />
<glyph unicode="&#xe900;" glyph-name="user" horiz-adv-x="1017" d="M317.806 665.324c0.193 105.181 85.487 190.375 190.687 190.408h0.003c105.203-0.032 190.498-85.227 190.69-190.389v-0.019c-0.175-101.793-80.058-184.872-180.557-190.162l-0.472-0.020c-2.866 0.057-6.246 0.088-9.634 0.088s-6.767-0.032-10.138-0.096l0.505 0.008c-100.995 5.28-180.908 88.37-181.085 190.164v0.018zM1014.461 63.703c-3.878 18.199-19.819 31.652-38.901 31.652-21.943 0-39.731-17.788-39.731-39.731 0-2.86 0.302-5.651 0.877-8.34l-0.047 0.26c0.564-2.566 0.887-5.514 0.887-8.537 0-9.998-3.534-19.171-9.42-26.339l0.058 0.073c-7.455-9.264-18.793-15.143-31.504-15.143-0.087 0-0.176 0-0.263 0.001h-775.854c-0.091-0.001-0.199-0.001-0.306-0.001-12.711 0-24.049 5.879-31.443 15.066l-0.061 0.077c-5.801 7.085-9.317 16.238-9.317 26.212 0 3.043 0.328 6.010 0.948 8.867l-0.050-0.274c41.246 197.979 215.946 342.677 417.654 347.537 3.143-0.13 6.832-0.204 10.538-0.204s7.394 0.073 11.065 0.22l-0.527-0.017c146.84-3.578 275.318-79.047 351.976-192.423l0.984-1.543c7.232-10.679 19.305-17.605 32.996-17.605 21.939 0 39.725 17.786 39.725 39.725 0 8.248-2.514 15.91-6.817 22.259l0.089-0.139c-63.931 94.58-156.042 165.861-264.17 202.336l-3.643 1.067c66.144 49.742 108.472 128.069 108.482 216.283v0.002c-0.193 149.131-121.052 269.97-270.171 270.131h-0.016c-149.112-0.193-269.938-121.020-270.131-270.112v-0.018c0-88.424 42.658-167.017 108.482-216.398-63.957-21.368-119.291-52.51-167.326-92.176l0.875 0.701c-88.731-73.417-152.205-174.567-177.189-290.052l-0.619-3.414c-1.654-7.49-2.601-16.092-2.601-24.917 0-66.603 53.976-120.599 120.572-120.629h775.871c66.599 0.031 120.575 54.027 120.575 120.629 0 8.824-0.947 17.427-2.746 25.712l0.145-0.796z" />
<glyph unicode="&#xe901;" glyph-name="logout" d="M510.495 36.972h-350.782c-21.472 0.037-38.87 17.414-38.945 38.872v701.571c0 21.45 17.428 38.945 38.945 38.945h350.782c21.528 0 38.98 17.451 38.98 38.98s-17.451 38.98-38.98 38.98v0h-350.782c-64.417 0-116.905-52.487-116.905-116.905v-701.496c0-64.484 52.487-116.905 116.905-116.905h350.782c21.51 0 38.945 17.437 38.945 38.945s-17.437 38.945-38.945 38.945v0zM969.6 454.183l-236.96 233.876c-7.037 6.946-16.709 11.235-27.383 11.235-21.532 0-38.987-17.455-38.987-38.987 0-10.858 4.439-20.679 11.6-27.747l0.005-0.004 169.392-167.113h-453.811c-21.528 0-38.98-17.451-38.98-38.98s17.451-38.98 38.98-38.98v0h453.811l-169.392-167.113c-7.166-7.073-11.605-16.893-11.605-27.751 0-21.532 17.455-38.987 38.987-38.987 10.674 0 20.347 4.289 27.387 11.239l-0.005-0.004 236.96 233.809c7.159 7.076 11.593 16.895 11.593 27.751s-4.434 20.676-11.588 27.747l-0.004 0.004z" />
<glyph unicode="&#xe902;" glyph-name="hide" d="M612.666 606.181c-9.262 9.276-22.066 15.015-36.209 15.015s-26.947-5.739-36.208-15.014l-144.773-144.773c-9.261-9.269-14.988-22.070-14.988-36.209s5.727-26.939 14.989-36.209l144.772-144.837c9.144-8.609 21.497-13.899 35.086-13.899 28.294 0 51.232 22.938 51.232 51.232 0 13.588-5.291 25.942-13.925 35.112l0.024-0.026-108.627 108.563 108.627 108.692c9.257 9.259 14.983 22.050 14.983 36.177s-5.726 26.918-14.983 36.177v0zM717.634 70.491c-59.433-35.538-131.1-56.552-207.676-56.552-226.216 0-409.6 183.384-409.6 409.6 0 151.975 82.768 284.619 205.686 355.314l1.989 1.055c58.056 33.48 127.684 53.231 201.924 53.231 226.216 0 409.6-183.384 409.6-409.6 0-149.641-80.244-280.539-200.049-352.012l-1.876-1.036zM956.268 681.168c-89.973 154.96-255.145 257.499-444.267 257.499-282.77 0-512-229.23-512-512 0-94.865 25.801-183.705 70.766-259.885l-1.303 2.386c90.369-153.278 254.632-254.501 442.536-254.501 282.77 0 512 229.23 512 512 0 93.649-25.143 181.425-69.046 256.947l1.312-2.446z" />
<glyph unicode="&#xe903;" glyph-name="settings" d="M512.001 658.667c-127.925 0-231.999-104.076-231.999-231.999s104.073-231.999 231.999-231.999c23.893 0 47.47 3.626 70.071 10.78 21.062 6.666 32.73 29.144 26.064 50.205s-29.149 32.732-50.205 26.066c-14.784-4.68-30.236-7.052-45.93-7.052-83.811 0-151.999 68.186-151.999 151.999s68.187 151.999 151.999 151.999c83.811 0 151.999-68.186 151.999-151.999 0-14.565-2.047-28.957-6.090-42.772-6.203-21.204 5.961-43.418 27.164-49.619 21.208-6.203 43.418 5.961 49.622 27.164 6.174 21.112 9.305 43.059 9.305 65.228 0 127.924-104.073 231.999-231.999 231.999zM904 566.666h-20.142c-5.301 0-10.103 3.338-12.184 8.374l-0.356 0.863c-2.155 5.188-1.123 10.961 2.622 14.71l14.246 14.244c46.788 46.788 46.788 122.918 0 169.706l-28.284 28.284c-22.665 22.665-52.801 35.148-84.854 35.148-32.055 0-62.19-12.482-84.854-35.148l-14.242-14.242c-3.75-3.75-9.53-4.778-14.695-2.632l-0.753 0.312c-5.166 2.134-8.502 6.935-8.502 12.233v20.148c0 66.168-53.832 120-120 120h-40c-66.168 0-120-53.832-120-120v-20.148c0-5.298-3.336-10.099-8.458-12.214l-0.782-0.324c-5.182-2.156-10.961-1.126-14.708 2.622l-14.244 14.244c-22.664 22.665-52.8 35.148-84.854 35.148s-62.188-12.482-84.854-35.148l-28.284-28.28c-46.788-46.79-46.788-122.918 0.001-169.707l14.242-14.242c3.748-3.75 4.775-9.525 2.562-14.86l-0.242-0.584c-2.133-5.166-6.938-8.504-12.236-8.504h-20.146c-66.168 0-120-53.832-120-120v-40c0-66.168 53.832-120 120-120h20.144c5.301 0 10.102-3.338 12.184-8.374l0.356-0.863c2.155-5.188 1.123-10.961-2.623-14.71l-14.242-14.244c-22.665-22.665-35.148-52.8-35.148-84.854s12.482-62.186 35.146-84.852l28.284-28.284c22.665-22.665 52.801-35.148 84.854-35.148 32.055 0 62.19 12.482 84.854 35.148l14.242 14.242c3.745 3.75 9.527 4.778 14.695 2.632l0.753-0.312c5.166-2.134 8.502-6.935 8.502-12.233v-20.148c0-66.168 53.832-120 120-120h40c66.168 0 120 53.832 120 120v20.148c0 5.298 3.336 10.099 8.458 12.214l0.782 0.324c5.186 2.152 10.961 1.123 14.708-2.622l14.244-14.244c22.664-22.665 52.8-35.148 84.854-35.148s62.188 12.482 84.854 35.148l28.284 28.284c22.664 22.664 35.146 52.8 35.146 84.852s-12.482 62.188-35.146 84.852l-14.244 14.244c-3.75 3.748-4.778 9.522-2.623 14.71l0.302 0.731c2.134 5.166 6.938 8.504 12.236 8.504h20.146c66.168 0 120 53.832 120 120v40c0 66.168-53.832 120-120 120zM944 406.669c0-22.056-17.944-40-40-40h-20.146c-37.81 0-71.636-22.752-86.178-57.966l-0.26-0.628c-14.596-35.198-6.768-75.2 19.953-101.922l14.246-14.244c7.554-7.554 11.714-17.6 11.714-28.284s-4.159-20.728-11.716-28.284l-28.282-28.284c-7.558-7.554-17.601-11.716-28.286-11.716-10.686 0-20.729 4.159-28.284 11.716l-14.246 14.246c-26.735 26.73-66.762 34.552-101.982 19.924l-0.564-0.234c-35.214-14.541-57.968-48.365-57.968-86.175v-20.148c0-22.056-17.944-40-40-40h-40c-22.056 0-40 17.944-40 40v20.148c0 37.81-22.753 71.636-58.010 86.194l-0.54 0.224c-11.78 4.894-24.094 7.272-36.274 7.272-24.222 0-47.902-9.417-65.692-27.206l-14.244-14.246c-7.556-7.554-17.599-11.714-28.284-11.714-10.684 0-20.729 4.162-28.284 11.716l-28.284 28.284c-7.556 7.556-11.716 17.6-11.716 28.284s4.159 20.729 11.716 28.284l14.244 14.244c26.722 26.722 34.549 66.724 19.953 101.922l-0.26 0.628c-14.543 35.214-48.37 57.966-86.178 57.966h-20.146c-22.056 0-40 17.944-40 40v40c0 22.056 17.944 40 40 40h20.146c37.81 0 71.636 22.752 86.231 58.094l0.186 0.454c14.624 35.208 6.799 75.231-19.933 101.968l-14.242 14.242c-15.598 15.598-15.598 40.973 0 56.57l28.282 28.284c7.558 7.554 17.601 11.716 28.286 11.716s20.729-4.159 28.284-11.716l14.246-14.246c26.738-26.731 66.764-34.556 101.982-19.924l0.564 0.234c35.214 14.541 57.968 48.365 57.968 86.175v20.148c0 22.056 17.944 40 40 40h40c22.056 0 40-17.944 40-40v-20.148c0-37.81 22.753-71.636 58.010-86.192l0.54-0.224c35.201-14.62 75.227-6.798 101.966 19.933l14.244 14.246c7.556 7.554 17.599 11.714 28.284 11.714s20.729-4.162 28.284-11.716l28.284-28.284c15.598-15.597 15.598-40.972 0.001-56.567l-14.246-14.246c-26.731-26.735-34.556-66.757-19.992-101.82l0.3-0.73c14.543-35.214 48.37-57.966 86.178-57.966h20.146c22.056 0 40-17.944 40-40v-40z" />
<glyph unicode="&#xe904;" glyph-name="pages" d="M728.231 722.636c21.538 0 39-17.91 39-40.006s-17.459-40.006-39-40.006h-276.682c-21.541 0-39 17.91-39 40.006s17.459 40.006 39 40.006h276.682zM728.231 562.613c21.541 0 39-17.91 39-40.006s-17.461-40.006-39-40.006h-276.682c-21.541 0-39 17.91-39 40.006s17.459 40.006 39 40.006h276.682zM570.498 402.59c21.541 0 39-17.91 39-40.006s-17.459-40.006-39-40.006h-118.949c-21.541 0-39 17.91-39 40.006s17.459 40.006 39 40.006h118.949zM886.397 394.591c21.541 0 39 17.91 39 40.006v344.047c0 88.238-69.983 160.023-155.999 160.023h-358.796c-85.97 0-155.919-71.705-155.999-159.876-86.016 0-155.999-71.786-155.999-160.023v-544.077c0-88.235 69.98-160.023 155.999-160.023h378.295c86.016 0 155.999 71.786 155.999 160.023v1.216c76.845 9.876 136.498 77.324 136.498 158.777 0 22.096-17.459 40.006-39 40.006s-39-17.91-39-40.006c0-44.108-34.981-80.002-77.98-80.012l-358.814-0.090c-20.833 0-40.417 8.319-55.147 23.43-14.736 15.112-22.853 35.208-22.853 56.582v544.048c0 44.118 34.991 80.012 77.999 80.012h358.799c43.008 0 77.999-35.894 77.999-80.012v-344.050c-0.002-22.094 17.458-40.004 38.997-40.004zM410.601 74.575l300.296 0.077c-0.023-44.097-35.005-79.968-77.999-79.968h-378.294c-43.008 0-77.999 35.894-77.999 80.012v544.077c0 44.118 34.991 80.012 77.999 80.012v-464.187c0-42.749 16.232-82.942 45.703-113.166 29.466-30.22 68.629-46.856 110.294-46.856z" />
<glyph unicode="&#xe905;" glyph-name="menus" d="M876 906.666h-728c-81.608 0-148-62.242-148-138.75s66.392-138.75 148-138.75h728c81.608 0 148 62.242 148 138.75s-66.392 138.75-148 138.75zM876 704.165h-728c-37.496 0-68.001 28.597-68.001 63.751s30.504 63.751 68.001 63.751h728c37.496 0 68.001-28.597 68.001-63.751s-30.504-63.751-68.001-63.751zM876 565.416h-728c-81.608 0-148-62.242-148-138.75s66.392-138.75 148-138.75h728c81.608 0 148 62.242 148 138.75s-66.392 138.75-148 138.75zM876 362.916h-728c-37.496 0-68.001 28.597-68.001 63.751s30.504 63.751 68.001 63.751h728c37.496 0 68.001-28.597 68.001-63.751s-30.504-63.751-68.001-63.751zM876 224.167c81.608 0 148-62.242 148-138.75s-66.392-138.75-148-138.75c-22.092 0-40 16.789-40 37.5s17.908 37.5 40 37.5c37.496 0 68.001 28.597 68.001 63.751s-30.504 63.751-68.001 63.751h-728c-37.496 0-68.001-28.597-68.001-63.751s30.504-63.751 68.001-63.751h527.999c22.092 0 40-16.789 40-37.5s-17.908-37.5-40-37.5h-527.999c-81.608 0-148 62.242-148 138.75s66.392 138.75 148 138.75h728z" />
<glyph unicode="&#xe906;" glyph-name="media" d="M874.039 788.706c-96.706 96.702-225.279 149.96-362.039 149.96s-265.333-53.258-362.039-149.96c-96.702-96.706-149.96-225.279-149.96-362.039s53.258-265.333 149.96-362.039c96.706-96.702 225.279-149.96 362.039-149.96 93.626 0 185.233 25.516 264.923 73.785 18.894 11.449 24.934 36.044 13.488 54.937-11.449 18.898-36.046 24.934-54.937 13.488-67.185-40.7-144.464-62.212-223.473-62.212-238.205 0-431.999 193.794-431.999 431.999s193.794 431.999 431.999 431.999c238.205 0 431.999-193.794 431.999-431.999 0-85.178-25.33-168.088-73.251-239.767-12.278-18.364-7.344-43.205 11.020-55.484 18.367-12.282 43.208-7.344 55.484 11.020 56.751 84.884 86.748 183.171 86.748 284.23 0 136.76-53.258 265.333-149.96 362.039zM469.33 635.82c-28.173 16.348-61.844 16.403-90.064 0.148-28.326-16.31-45.236-45.596-45.236-78.338v-261.929c0-32.742 16.909-62.028 45.236-78.338 14.068-8.105 29.484-12.153 44.904-12.153 15.514 0 31.032 4.104 45.16 12.302l225.694 130.963c28.162 16.342 44.976 45.572 44.976 78.19s-16.814 61.848-44.976 78.19l-225.694 130.963zM654.871 417.673l-225.694-130.963c-4.126-2.398-7.71-1.33-9.988-0.020-2.356 1.355-5.16 4.020-5.16 9.014v261.927c0 4.994 2.804 7.658 5.16 9.014 1.292 0.744 3.002 1.406 4.992 1.406 1.522 0 3.208-0.387 4.996-1.426l225.694-130.963c4.24-2.458 5.128-6.248 5.128-8.994s-0.889-6.536-5.128-8.994z" />
<glyph unicode="&#xe907;" glyph-name="form" d="M984 354.356c22.092 0 40 18.239 40 40.739v266.839c0 89.854-71.776 162.955-160 162.955h-704c-88.224 0-160-73.102-160-162.955v-470.534c0-89.854 71.776-162.955 160-162.955h704c88.224 0 160 73.102 160 162.955 0 22.5-17.908 40.739-40 40.739s-40-18.239-40-40.739c0-44.926-35.888-81.478-80.001-81.478h-704c-44.112 0-80.001 36.551-80.001 81.478v461.901l347.51-220.082c26.058-16.501 55.274-24.752 84.49-24.752s58.432 8.251 84.49 24.752l347.51 220.082v-258.207c0-22.5 17.908-40.739 40-40.739zM554.244 502.414c-26.057-16.501-58.432-16.504-84.489 0l-356.378 225.697c13.136 9.626 29.24 15.301 46.622 15.301h704c17.382 0 33.486-5.677 46.622-15.303l-356.378-225.696z" />
<glyph unicode="&#xe908;" glyph-name="dashboard" d="M870.287 680.949c-13.592 13.643-34.926 15.655-50.815 4.787-59.852-40.956-360.060-246.903-392.324-279.291-46.789-46.973-46.789-123.4 0-170.374 23.394-23.484 54.126-35.228 84.854-35.228s61.458 11.744 84.854 35.228c32.262 32.391 237.402 333.776 278.2 393.863 10.822 15.948 8.82 37.368-4.77 51.016zM540.285 292.862c-15.594-15.66-40.972-15.66-56.566 0-15.596 15.655-15.598 41.125-0.008 56.782 12.536 12.437 97.77 73.464 202.638 146.643-72.892-105.279-133.68-190.843-146.064-203.424zM184.462 134.479c19.856 9.72 43.804 1.445 53.49-18.487 9.686-19.934 1.442-43.974-18.414-53.698l-82-40.157c-5.622-2.753-11.606-4.068-17.514-4.068-12.997 0-25.634 6.367-33.278 17.842-56.75 85.215-86.746 183.888-86.746 285.344 0 137.297 53.258 266.375 149.96 363.46 96.707 97.083 225.28 150.548 362.040 150.548 73.318 0 144.126-15.244 210.458-45.304 20.136-9.126 29.090-32.909 20-53.123-9.090-20.209-32.784-29.202-52.914-20.076-43.775 19.837-89.887 32.021-137.542 36.376v-60.429c0-22.178-17.908-40.157-40-40.157s-40 17.978-40 40.157v60.398c-138.998-12.87-259.133-92.129-328.566-205.814l55.864-26.902c19.92-9.592 28.32-33.58 18.768-53.576-6.878-14.396-21.188-22.799-36.094-22.799-5.803 0-11.692 1.273-17.272 3.96l-56.582 27.246c-18.167-47.869-28.12-99.773-28.12-153.967 0-73.967 18.95-146.223 55.083-210.96l49.38 24.182zM978.872 532.539c29.944-66.59 45.128-137.676 45.128-211.281 0-101.456-29.996-200.13-86.748-285.347-7.634-11.466-20.274-17.842-33.274-17.842-5.792 0-11.65 1.263-17.177 3.903l-84 40.157c-19.946 9.535-28.416 33.499-18.918 53.522 9.5 20.027 33.37 28.525 53.312 18.993l51.554-24.647c36.238 64.811 55.25 137.184 55.25 211.262 0 62.135-12.799 122.103-38.042 178.239-9.090 20.213-0.136 43.996 19.998 53.121 20.142 9.13 43.828 0.134 52.916-20.078z" />
<glyph unicode="&#xe909;" glyph-name="category" d="M755.275 494.223c0 22.092-17.717 40-39.574 40h-407.62c-21.857 0-39.574-17.908-39.574-40s17.717-40 39.574-40h407.62c21.857 0 39.574 17.908 39.574 40zM401.081 858.667h-132.356c-43.643 0-79.15-35.888-79.15-80v-703.999c0-44.112 35.507-80 79.15-80h486.55c43.643 0 79.15 35.888 79.15 80v703.999c0 44.112-35.507 80-79.15 80h-354.195zM913.575 320.667v-246c0-88.224-71.013-160-158.3-160h-486.55c-87.286 0-158.3 71.776-158.3 160v703.999c0 88.224 71.013 160 158.3 160h486.55c87.286 0 158.3-71.776 158.3-160v-457.999zM715.701 698.666c21.857 0 39.574-17.908 39.574-40s-17.717-40-39.574-40h-407.62c-21.857 0-39.574 17.908-39.574 40s17.717 40 39.574 40h407.62zM314.935 85.106l-15.664 8.362-82.078 105.529h-106.767v56.888h115.926l15.619-8.306 82.122-105.585 369.284 0.341 81.901 105.302 15.664 8.362h115.926v-56.888h-106.767l-81.945-105.358-15.619-8.306-387.603-0.341zM715.701 369.779c21.857 0 39.574-17.908 39.574-40s-17.717-40-39.574-40h-407.62c-21.857 0-39.574 17.908-39.574 40s17.717 40 39.574 40h407.62z" />
<glyph unicode="&#xe90a;" glyph-name="article" d="M702.868 498.668c0-22.092-17.717-40-39.574-40h-407.62c-21.857 0-39.574 17.908-39.574 40s17.717 40 39.574 40h407.62c21.857 0 39.574-17.908 39.574-40zM255.672 378.668h247.562c21.857 0 39.574-17.908 39.574-40s-17.717-40-39.574-40h-247.562c-21.857 0-39.574 17.908-39.574 40s17.717 40 39.574 40zM348.673-5.332c21.857 0 39.574-17.908 39.574-40s-17.717-40-39.574-40h-132.356c-87.286 0-158.3 71.776-158.3 160v703.999c0 88.224 71.013 160 158.3 160h486.55c87.286 0 158.3-71.776 158.3-160v-246c0-22.092-17.717-40-39.574-40s-39.574 17.908-39.574 40v246c0 44.112-35.507 80-79.15 80h-486.55c-43.643 0-79.15-35.888-79.15-80v-703.999c0-44.112 35.507-80 79.15-80h132.356zM931.264 359.524c-46.29 46.788-121.61 46.79-167.871 0.032l-217.272-219.12c-4.614-4.654-8.018-10.386-9.913-16.689l-47.317-157.45c-4.195-13.96-0.54-29.118 9.539-39.56 7.551-7.822 17.809-12.068 28.33-12.068 3.52 0 7.074 0.475 10.562 1.454l159.734 44.722c6.573 1.839 12.564 5.366 17.393 10.239l216.817 218.734c46.29 46.788 46.29 122.916-0.002 169.708zM665.898 35.132l-80.361-22.5 23.517 78.258 146.603 147.85 55.979-56.58-145.739-147.028zM875.327 246.409l-7.668-7.734-55.969 56.57 7.641 7.709c15.431 15.596 40.536 15.596 55.967 0s15.431-40.973 0.028-56.544zM663.292 698.667c21.857 0 39.574-17.908 39.574-40s-17.717-40-39.574-40h-407.62c-21.857 0-39.574 17.908-39.574 40s17.717 40 39.574 40h407.62z" />
<glyph unicode="&#xe90b;" glyph-name="themes" d="M963.991 878.655c-38.698 38.699-90.148 60.012-144.874 60.012s-106.177-21.312-144.875-60.010l-572.589-572.592c-4.872-4.872-8.403-10.92-10.251-17.557l-89.936-323.113c-3.877-13.936 0.067-28.882 10.326-39.084 7.6-7.56 17.784-11.642 28.212-11.642 3.644 0 7.32 0.5 10.926 1.523l323.113 91.782c13.632 3.872 24.2 14.67 27.776 28.384s-0.373 28.296-10.378 38.334l-203.703 204.322 474.628 474.631 176.515-176.515-363.347-362.357c-15.642-15.599-15.676-40.925-0.076-56.567 15.598-15.643 40.928-15.676 56.567-0.078l431.96 430.783c38.699 38.698 60.012 90.148 60.012 144.874s-21.312 106.176-60.008 144.871zM286.791 66.352l-189.135-53.724 52.97 190.304 136.166-136.58zM907.459 645.517l-11.929-11.898-176.592 176.594 11.876 11.876c23.585 23.588 54.946 36.578 88.304 36.578s64.716-12.99 88.304-36.58c23.588-23.585 36.578-54.946 36.578-88.304s-12.99-64.718-36.541-88.265z" />
<glyph unicode="&#xe90c;" glyph-name="product" d="M982.939 697.255c0 3.891-0.865 7.78-2.593 11.454-3.458 7.348-10.158 12.319-17.506 13.832l-440.247 213.532c-7.132 3.458-15.561 3.458-22.693 0l-444.57-215.477c-8.645-4.106-14.265-12.752-14.696-22.475v-0.216c0-0.216 0-0.432 0-0.865v-540.747c0-9.941 5.619-19.019 14.696-23.341l444.57-215.477c0.216 0 0.216 0 0.432-0.216 0.648-0.216 1.297-0.432 1.945-0.865 0.216 0 0.432-0.216 0.865-0.216 0.648-0.216 1.297-0.432 1.945-0.648 0.216 0 0.432-0.216 0.648-0.216 0.648-0.216 1.513-0.216 2.161-0.432 0.216 0 0.432 0 0.648 0 0.865 0 1.945-0.216 2.809-0.216s1.945 0 2.809 0.216c0.216 0 0.432 0 0.648 0 0.648 0 1.513 0.216 2.161 0.432 0.216 0 0.432 0.216 0.648 0.216 0.648 0.216 1.297 0.432 1.945 0.648 0.216 0 0.432 0.216 0.865 0.216 0.648 0.216 1.297 0.432 1.945 0.865 0.216 0 0.216 0 0.432 0.216l445.867 216.125c8.861 4.322 14.696 13.4 14.696 23.341v539.666c-0.432 0.216-0.432 0.432-0.432 0.648zM511.136 883.988l385.569-186.949-141.996-68.944-385.569 186.948 141.996 68.944zM511.136 510.092l-385.569 186.949 184.14 89.26 385.569-186.948-184.14-89.26zM92.502 655.327l392.7-190.405v-482.608l-392.7 190.405v482.608zM537.072-17.687v482.608l184.356 89.476v-126.217c0-14.265 11.671-25.935 25.935-25.935s25.935 11.671 25.935 25.935v151.504l157.771 76.508v-482.608l-393.996-191.271z" />
<glyph unicode="&#xe90d;" glyph-name="delete" horiz-adv-x="745" d="M207.668 557.695h58.855v-517.311h-58.949zM343.63 557.695h58.855v-517.311h-58.949zM479.501 557.695h58.949v-517.311h-58.949zM745.001 743.574v-112.589h-55.223v-640.605c0-38.647-28.123-68.168-64.257-68.168h-506.043c-36.132 0-63.698 29.521-63.698 68.168v640.698h-55.782v112.496c0 38.647 28.123 68.726 64.257 68.726h126.371v87.537c0 17.694 12.758 31.291 29.242 31.291h299.957c0.559 0 1.584-0.559 2.142-1.117 0.559 0.559 1.584 1.117 3.166 1.117 16.483 0 29.8-13.596 29.8-31.291v-87.537h125.813c36.132 0 64.257-30.079 64.257-68.726zM249.015 868.641v-56.341h246.969v56.341zM630.83-9.532v640.512h-516.659v-640.605c0-4.004 1.584-5.587 5.308-5.587h506.043c3.725 0 5.308 1.584 5.308 5.587zM686.053 743.574c0 3.911-1.584 6.239-5.308 6.239h-616.486c-3.725 0-5.308-2.328-5.308-6.239v-50.009h627.102z" />
<glyph unicode="&#xe90e;" glyph-name="view" d="M511.975 189.018c-205.028 0-382.614 179.139-435.197 237.648 52.515 58.655 229.729 237.721 435.197 237.721 205.098 0 382.684-179.139 435.276-237.721-52.515-58.655-229.729-237.648-435.276-237.648zM1017.516 444.936c-9.169 11.541-227.070 281.432-505.537 281.432-278.402 0-496.293-269.968-505.467-281.355-4.052-4.953-6.511-11.345-6.511-18.307s2.454-13.355 6.553-18.355l-0.040 0.049c9.096-11.541 227.070-281.432 505.467-281.432s496.367 269.968 505.537 281.432c4.038 4.937 6.483 11.315 6.483 18.269s-2.445 13.324-6.524 18.323l0.041-0.049zM511.75 302.407c-74.477 0-135.053 55.694-135.053 124.039 0 68.417 60.576 124.039 135.053 124.039 74.409 0 134.983-55.626 134.983-124.039 0-68.34-60.576-124.039-134.983-124.039zM511.75 612.462c-111.686 0-202.586-83.429-202.586-186.023s90.899-186.023 202.586-186.023c111.686 0 202.514 83.429 202.514 186.023s-90.829 186.023-202.514 186.023z" />
<glyph unicode="&#xe90f;" glyph-name="edit" d="M0 92.238h1024v-167.143h-1024zM883.591 759.361l-83.624-81.965-159.994 156.678 83.624 81.965c7.756 7.547 18.36 12.201 30.051 12.201s22.295-4.654 30.061-12.21l-0.010 0.009 99.893-97.82c16.58-16.269 16.58-42.589 0-58.858zM757.274 635.635l-426.615-418.014h-159.994v156.781l426.615 417.91z" />
<glyph unicode="&#xe910;" glyph-name="alarm" horiz-adv-x="884" d="M424.96-5.321c-22.107 0-40.029 17.922-40.029 40.029h80.012c0-22.107-17.922-40.029-40.029-40.029v0zM846.057 176.858c-2.9 19.505-19.531 34.299-39.617 34.299-22.107 0-40.029-17.922-40.029-40.029 0-3.201 0.376-6.314 1.085-9.297l-0.055 0.272c0.46-2.265 0.724-4.867 0.724-7.532 0-9.729-3.511-18.637-9.336-25.527l0.048 0.058c-7.285-8.838-18.234-14.43-30.488-14.43-0.081 0-0.163 0-0.244 0.001h-607.219c-0.069 0-0.15-0.001-0.232-0.001-12.255 0-23.204 5.591-30.434 14.362l-0.054 0.067c-5.781 6.833-9.295 15.745-9.295 25.478 0 2.678 0.266 5.294 0.773 7.823l-0.042-0.253c11.357 60.509 34.118 100.352 56.134 138.845 26.717 46.778 54.365 95.139 54.365 169.658v60.044c0 126.138 102.54 230.121 228.631 231.936h7.54c125.673-1.815 227.84-105.844 227.84-231.983v-59.997c0-63.441 20.759-107.055 40.215-143.034 6.631-13.483 20.268-22.598 36.034-22.598 22.107 0 40.029 17.922 40.029 40.029 0 7.626-2.132 14.753-5.833 20.819l0.1-0.176c-19.316 35.793-30.534 64.419-30.534 104.96v60.044c0 0.143 0 0.311 0 0.48 0 85.183-34.307 162.354-89.858 218.448l0.025-0.025c-47.282 48.378-110.226 81.268-180.622 90.458l-1.557 0.166v58.415c0.015 0.407 0.023 0.885 0.023 1.365 0 22.107-17.922 40.029-40.029 40.029s-40.029-17.922-40.029-40.029c0-0.48 0.008-0.958 0.025-1.434l-0.002 0.069v-58.601c-152.902-19.828-271.965-151.738-271.965-309.434v-59.997c0-53.295-19.363-87.133-43.846-129.955-24.157-42.217-51.479-90.065-65.303-163.84-6.609-35.235 2.7-71.261 25.6-98.816 22.1-26.582 55.177-43.38 92.177-43.38 0.043 0 0.086 0 0.129 0h183.987c0.106-66.235 53.798-119.895 120.036-119.948h0.005c66.239 0.079 119.915 53.755 119.994 119.987v0.007h183.203c35.84 0 69.446 15.825 92.346 43.38 17.224 20.597 27.683 47.366 27.683 76.579 0 7.864-0.758 15.551-2.205 22.992l0.122-0.755z" />
<glyph unicode="&#xe911;" glyph-name="search" d="M1005.34-66.673c-25.031-24.917-65.422-24.917-90.453 0l-201.159 201.273c-175.218-130.958-423.595-118.556-582.713 40.619-80.939 80.921-131.003 192.723-131.003 316.217s50.063 235.296 131.002 316.216l0.001 0.001c80.921 80.939 192.723 131.003 316.217 131.003s235.296-50.063 316.216-131.002l0.001-0.001c159.175-159.118 171.577-407.552 40.619-582.713l201.273-201.273c11.545-11.567 18.684-27.535 18.684-45.17s-7.139-33.603-18.685-45.171l0.001 0.001zM673.109 717.312c-57.8 57.823-137.662 93.588-225.877 93.588s-168.077-35.766-225.876-93.587l-0.001-0.001c-57.806-57.797-93.56-137.648-93.56-225.849s35.754-168.052 93.559-225.848l0.001-0.001c57.797-57.806 137.648-93.56 225.849-93.56s168.052 35.754 225.848 93.559l0.001 0.001c57.806 57.797 93.56 137.648 93.56 225.849s-35.754 168.052-93.559 225.848l-0.001 0.001z" />
<glyph unicode="&#xe912;" glyph-name="worldwide" d="M224.96 46.379c-116.325 87.86-190.723 225.899-190.723 381.314 0 49.689 7.605 97.602 21.714 142.638l-0.912-3.376 14.080-42.432c1.252-3.663 3.605-6.678 6.659-8.729l0.061-0.039 84.992-56.576-19.392-19.392c-3.082-3.079-4.989-7.332-4.992-12.031v-51.137c0-2.624 0.64-5.248 1.792-7.616l34.112-68.096c2.357-4.645 6.653-8.016 11.794-9.069l0.11-0.019 71.616-14.272v-156.352c0-2.176 0.384-4.352 1.216-6.4l34.048-85.12c1.92-4.608 5.76-8.256 10.432-9.792l51.2-17.024c1.604-0.552 3.453-0.871 5.376-0.871 9.393 0 17.010 7.608 17.024 16.998v76.609l61.248 46.016c4.171 3.134 6.843 8.071 6.848 13.631v44.033l63.168 63.104c2.313 2.306 3.967 5.273 4.653 8.594l0.019 0.11 17.024 85.184c0.209 1.001 0.328 2.15 0.328 3.328 0 9.402-7.622 17.024-17.024 17.024-0.003 0-0.006 0-0.009 0h-58.56l-46.144 76.928c-3.030 4.98-8.429 8.256-14.592 8.256h-108.8l-29.248 58.688c-2.843 5.668-8.608 9.49-15.266 9.49-4.713 0-8.979-1.915-12.061-5.010l-0.001-0.001-22.144-22.080v27.008c-0.003 4.7-1.91 8.953-4.992 12.032v0l-29.056 29.12v29.248l104.64 14.976c2.4 0.34 4.561 1.13 6.477 2.283l-0.077-0.043 85.184 51.072c2.403 1.46 4.364 3.421 5.781 5.749l0.043 0.075 47.936 79.744 45.12 15.104c5.102 1.708 9.044 5.65 10.717 10.633l0.035 0.119 17.088 51.072c0.547 1.597 0.862 3.436 0.862 5.349 0 8.418-6.11 15.409-14.138 16.78l-0.101 0.014-98.624 16.448-17.344 11.52c43.987 14.807 94.643 23.352 147.295 23.352 65.071 0 127.093-13.051 183.593-36.678l-3.144 1.166-31.104-15.552h-64.192c-0.040 0-0.087 0.001-0.134 0.001-6.626 0-12.368-3.786-15.181-9.312l-0.045-0.097-34.048-68.096c-1.127-2.213-1.787-4.826-1.787-7.593 0-7.477 4.82-13.828 11.523-16.116l0.12-0.036 51.2-17.088c3.008-1.024 6.336-1.152 9.472-0.32l63.36 15.808 46.4-15.488 2.048-0.512 85.248-17.024c4.48-0.896 9.024 0 12.8 2.56l38.784 25.792c19.072-21.248 36.224-44.16 51.264-68.48l-83.84-27.904-90.816 15.168-30.016 44.928c-3.074 4.588-8.224 7.577-14.074 7.616h-102.278c-4.7-0.003-8.953-1.91-12.032-4.992v0l-51.136-51.136c-3.074-3.080-4.975-7.331-4.975-12.027 0-0.86 0.064-1.705 0.187-2.53l-0.011 0.093 17.024-119.168c0.896-5.952 4.736-10.944 10.24-13.248l119.296-51.136c1.961-0.867 4.249-1.371 6.654-1.371 1.502 0 2.958 0.197 4.343 0.566l-0.118-0.027 60.8 15.168 37.248-24.832v-59.008c0-2.56 0.512-5.184 1.664-7.616l66.496-132.608v-64.128c0-4.48 1.792-8.832 4.992-12.032l35.648-35.648c-88.014-116.291-226.144-190.648-381.642-190.648-107.966 0-207.559 35.846-287.528 96.287l1.202-0.871zM276.032 308.139l-76.992 15.424-28.608 57.088v40l63.488 63.488 23.488-46.976c2.88-5.76 8.768-9.408 15.232-9.408h109.568l46.144-76.928c3.072-5.12 8.64-8.256 14.592-8.256h47.36l-11.904-59.712-64.512-64.512c-3.082-3.079-4.989-7.332-4.992-12.031v-42.561l-61.312-46.016c-4.171-3.134-6.843-8.071-6.848-13.631v-61.441l-21.12 6.976-29.952 74.816v167.040c-0.021 8.184-5.814 15.009-13.521 16.621l-0.111 0.019zM324.544 866.603l40.832-27.264c2.048-1.28 4.288-2.176 6.656-2.56l82.56-13.76-8.064-24.064-43.008-14.336c-3.918-1.325-7.114-3.92-9.174-7.285l-0.042-0.075-48.896-81.344-78.592-47.104-115.84-16.512c-8.27-1.227-14.55-8.258-14.592-16.764v-51.012c0-4.48 1.792-8.832 4.992-12.032l29.056-29.056v-29.184l-70.848 47.168-25.664 76.928c49.929 111.941 138.094 199.339 247.535 247.056l3.089 1.2zM841.728 770.859l-27.648-18.496-77.248 15.488-50.048 16.64c-1.613 0.571-3.474 0.901-5.412 0.901-1.465 0-2.886-0.189-4.24-0.543l0.116 0.026-63.36-15.808-27.712 9.216 20.608 41.152h57.6c2.56 0 5.184 0.64 7.552 1.792l58.944 29.44c42.392-22.366 78.855-48.927 110.989-79.944l-0.141 0.136zM912 170.155l-26.24 26.24v61.056c0 0.023 0 0.051 0 0.078 0 2.72-0.638 5.292-1.773 7.573l0.045-0.099-66.368 132.672v64.192c-0.016 5.881-3.011 11.058-7.555 14.105l-0.061 0.039-51.072 34.048c-2.661 1.806-5.944 2.883-9.478 2.883-1.475 0-2.907-0.188-4.272-0.54l0.118 0.026-62.592-15.616-105.088 45.12-14.464 101.248 40.064 40.064h86.016l28.992-43.52c2.56-3.84 6.72-6.528 11.392-7.296l102.144-17.024c0.848-0.151 1.824-0.237 2.82-0.237 1.922 0 3.77 0.321 5.491 0.912l-0.119-0.035 94.080 31.36c33.887-63.725 53.786-139.34 53.786-219.603 0-95.714-28.298-184.819-76.984-259.405l1.117 1.824zM511.232 938.667c-0.025 0-0.055 0-0.085 0-209.502 0-389.552-126.097-468.394-306.535l-1.281-3.289-6.4-2.112 2.496-7.424c-23.669-56.766-37.418-122.713-37.418-191.872 0-282.028 228.628-510.656 510.656-510.656 0.105 0 0.209 0 0.314 0h-0.016c0.019 0 0.041 0 0.064 0 282.187 0 510.944 228.757 510.944 510.944 0 282.164-228.721 510.907-510.876 510.944h-0.004z" />
<glyph unicode="&#xe913;" glyph-name="external-link" horiz-adv-x="1186" d="M909.743 345.232h-42.307c-0.196 0.007-0.427 0.011-0.659 0.011-11.311 0-20.48-9.169-20.48-20.48 0-0.25 0.004-0.499 0.013-0.747l-0.001 0.036v-211.591c0.006-0.423 0.010-0.921 0.010-1.421 0-28.756-11.915-54.728-31.078-73.25l-0.029-0.028c-18.545-19.16-44.496-31.054-73.226-31.054-0.518 0-1.034 0.004-1.55 0.012l0.078-0.001h-550.104c-0.438-0.007-0.955-0.011-1.472-0.011-28.73 0-54.681 11.894-73.199 31.026l-0.027 0.028c-19.192 18.549-31.107 44.522-31.107 73.277 0 0.5 0.004 0.998 0.011 1.496l-0.001-0.075v550.104c0 29.103 10.348 54.003 31.097 74.698 18.549 19.192 44.522 31.107 73.277 31.107 0.5 0 0.998-0.004 1.496-0.011l-0.075 0.001h465.489c0.218-0.008 0.473-0.013 0.73-0.013 5.641 0 10.752 2.269 14.471 5.943l-0.002-0.002c3.673 3.717 5.941 8.828 5.941 14.469 0 0.257-0.005 0.512-0.014 0.767l0.001-0.037v42.361c0.008 0.218 0.013 0.473 0.013 0.73 0 5.641-2.269 10.752-5.943 14.471l0.002-0.002c-3.717 3.673-8.828 5.941-14.469 5.941-0.257 0-0.512-0.005-0.767-0.014l0.037 0.001h-465.489c-52.44 0-97.28-18.648-134.575-55.889-34.464-33.386-55.855-80.089-55.855-131.789 0-0.961 0.007-1.92 0.022-2.877l-0.002 0.145v-550.104c0-52.44 18.648-97.28 55.889-134.521 33.398-34.495 80.13-55.908 131.863-55.908 0.935 0 1.868 0.007 2.799 0.021l-0.141-0.002h550.104c52.44 0 97.28 18.648 134.575 55.889 34.463 33.377 55.856 80.074 55.856 131.766 0 0.969-0.008 1.935-0.022 2.901l0.002-0.146v211.591c0.009 0.224 0.014 0.487 0.014 0.751 0 5.634-2.269 10.739-5.944 14.449l0.002-0.002c-3.709 3.673-8.813 5.942-14.447 5.942-0.264 0-0.527-0.005-0.789-0.015l0.038 0.001zM1172.049 925.032c-7.421 7.745-17.848 12.559-29.4 12.559-0.123 0-0.246-0.001-0.369-0.002h-338.44c-0.127 0.001-0.277 0.002-0.427 0.002-11.545 0-21.965-4.814-29.363-12.545l-0.014-0.015c-7.745-7.412-12.559-17.832-12.559-29.377 0-0.131 0.001-0.262 0.002-0.393v0.020c0-11.48 4.204-21.396 12.557-29.75l116.413-116.413-431.158-431.050c-4.051-3.814-6.573-9.211-6.573-15.198s2.522-11.385 6.563-15.188l0.011-0.010 75.453-75.399c3.821-4.036 9.216-6.548 15.198-6.548s11.378 2.512 15.189 6.539l0.009 0.010 431.050 431.104 116.413-116.413c8.354-8.354 18.27-12.504 29.696-12.504 0.12-0.001 0.262-0.002 0.404-0.002 11.552 0 21.979 4.814 29.386 12.545l0.014 0.015c7.745 7.412 12.559 17.832 12.559 29.377 0 0.131-0.001 0.262-0.002 0.393v-0.020 338.459c0.001 0.105 0.002 0.229 0.002 0.353 0 11.578-4.835 22.026-12.597 29.436l-0.016 0.015z" />
</font>
</defs>
</svg>
