<svg xmlns="http://www.w3.org/2000/svg" xmlns:xlink="http://www.w3.org/1999/xlink" width="22" height="23" viewBox="0 0 22 23"><defs><path id="nhu5a" d="M745.314 206.87v-10.027l3.83-1.86v2.623a.54.54 0 0 0 .54.539.54.54 0 0 0 .538-.539v-3.148l3.278-1.59v10.028zm-9.236-13.983l8.158 3.956v10.026l-8.158-3.956zm8.697 3.007l-8.01-3.877 3.825-1.851 8.011 3.877zm0-7.758l8.01 3.877-2.95 1.43-8.01-3.877zm9.803 3.88a.558.558 0 0 0-.054-.238.52.52 0 0 0-.364-.288l-9.147-4.436a.543.543 0 0 0-.471 0l-9.237 4.477a.54.54 0 0 0-.305.467v11.257c0 .206.117.395.305.485l9.237 4.476c.004 0 .004 0 .009.005.013.004.027.009.04.018.005 0 .01.004.018.004l.04.014c.005 0 .01.004.014.004.014.005.031.005.045.01h.013c.018 0 .04.004.059.004.018 0 .04 0 .058-.005h.014a.16.16 0 0 0 .045-.009c.004 0 .009-.004.013-.004l.04-.014c.005 0 .01-.004.018-.004a.16.16 0 0 0 .04-.018c.005 0 .005 0 .01-.005l9.263-4.49a.543.543 0 0 0 .306-.485V192.03c-.01-.004-.01-.009-.01-.013z"/></defs><g><g transform="translate(-734 -186)"><g><g><g><g><g><use fill="#fff" xlink:href="#nhu5a"/><use fill="#fff" fill-opacity="0" stroke="#fff" stroke-miterlimit="50" stroke-width=".3" xlink:href="#nhu5a"/></g></g></g></g></g></g></g></svg>