<svg xmlns="http://www.w3.org/2000/svg" xmlns:xlink="http://www.w3.org/1999/xlink" width="18" height="20" viewBox="0 0 18 20"><defs><path id="y6zga" d="M446.653 205.326l-1.537.432.45-1.5 2.805-2.836 1.07 1.085zm4.02-4.06l-.147.147-1.073-1.077.146-.147a.758.758 0 0 1 1.073 0 .765.765 0 0 1 0 1.077zm-4.057-8.664h-7.825c-.42 0-.76.346-.76.772 0 .427.34.772.76.772h7.825c.42 0 .76-.345.76-.772a.766.766 0 0 0-.76-.772zm5.13 6.504a2.26 2.26 0 0 0-3.22 0l-4.166 4.206a.77.77 0 0 0-.19.32l-.908 3.023a.774.774 0 0 0 .183.76.755.755 0 0 0 .746.203l3.063-.858a.757.757 0 0 0 .334-.197l4.158-4.199a2.326 2.326 0 0 0 0-3.258zm-4.37-2.668a.763.763 0 0 0-.76-.768h-7.825c-.42 0-.76.344-.76.768 0 .423.34.767.76.767h7.825c.42 0 .76-.344.76-.768zm-8.586 2.3a.763.763 0 0 0-.759.768c0 .423.34.767.76.767h4.747c.419 0 .758-.344.758-.767a.763.763 0 0 0-.758-.767zm1.784 7.364h-2.538a1.528 1.528 0 0 1-1.518-1.534v-13.5c0-.846.68-1.534 1.518-1.534h9.33c.837 0 1.518.688 1.518 1.534v4.718c0 .423.34.767.758.767.42 0 .76-.344.76-.767v-4.718c0-1.692-1.362-3.068-3.036-3.068h-9.33c-1.674 0-3.036 1.376-3.036 3.068v13.5c0 1.692 1.362 3.068 3.036 3.068h2.538c.419 0 .759-.343.759-.767a.763.763 0 0 0-.76-.767z"/></defs><g><g transform="translate(-435 -188)"><g><use fill="#fff" xlink:href="#y6zga"/></g></g></g></svg>