<svg xmlns="http://www.w3.org/2000/svg" xmlns:xlink="http://www.w3.org/1999/xlink" width="30" height="38" viewBox="0 0 30 38"><defs><path id="zcfha" d="M1382.461 177.977h-15.126a1.477 1.477 0 0 1-1.469-1.484c0-.82.658-1.484 1.469-1.484h15.126c.812 0 1.469.664 1.469 1.484s-.657 1.484-1.469 1.484zm1.469-7.586c0 .82-.657 1.484-1.469 1.484h-15.126a1.477 1.477 0 0 1-1.469-1.484c0-.82.658-1.485 1.469-1.485h15.126c.812 0 1.469.665 1.469 1.485zm0 12.204c0 .82-.657 1.485-1.469 1.485h-15.126a1.477 1.477 0 0 1-1.469-1.485c0-.82.658-1.484 1.469-1.484h15.126c.812 0 1.469.665 1.469 1.484zm2.937 2.738v-19.396c0-1.636-1.317-2.968-2.937-2.968h-18.056c-1.62 0-2.937 1.332-2.937 2.969v19.4H1360v-19.4c0-3.274 2.635-5.938 5.874-5.938h18.056c3.24 0 5.874 2.664 5.874 5.938v26.125c0 3.273-2.635 5.937-5.874 5.937h-18.056c-3.239 0-5.874-2.664-5.874-5.938v-4.613h2.937v4.613c0 1.637 1.318 2.97 2.937 2.97h18.056c1.62 0 2.937-1.333 2.937-2.97v-4.618h2.689v-2.11zm-19.572 6.342v-.013l-3.333-4.213h-1.025v-2.111h1.67l3.322 4.226 13.704-.013 3.408-4.218h1.826v2.111h-1.274l-3.62 4.231v-.013z"/></defs><g><g transform="translate(-1360 -160)"><use fill="#3cb0d8" xlink:href="#zcfha"/></g></g></svg>