<svg xmlns="http://www.w3.org/2000/svg" xmlns:xlink="http://www.w3.org/1999/xlink" width="18" height="18" viewBox="0 0 18 18"><defs><path id="mqeda" d="M1347.625 193.776a3.376 3.376 0 0 1 3.375-3.37 3.376 3.376 0 0 1 3.375 3.37 3.376 3.376 0 0 1-3.204 3.366 9.25 9.25 0 0 0-.341 0 3.376 3.376 0 0 1-3.205-3.366zm12.33 10.648a.703.703 0 1 0-1.377.286.735.735 0 0 1-.15.616.714.714 0 0 1-.562.268h-13.732a.714.714 0 0 1-.563-.268.735.735 0 0 1-.149-.616c.73-3.504 3.822-6.065 7.392-6.151a4.826 4.826 0 0 0 .373 0 7.735 7.735 0 0 1 6.247 3.433.703.703 0 1 0 1.168-.783 9.146 9.146 0 0 0-4.74-3.6 4.777 4.777 0 0 0 1.92-3.828A4.787 4.787 0 0 0 1351 189a4.787 4.787 0 0 0-4.781 4.781c0 1.565.755 2.956 1.92 3.83a9.137 9.137 0 0 0-2.946 1.619 9.173 9.173 0 0 0-3.147 5.194 2.135 2.135 0 0 0 2.088 2.576h13.732a2.135 2.135 0 0 0 2.088-2.576z"/></defs><g><g transform="translate(-1342 -189)"><g><use fill="#fff" xlink:href="#mqeda"/></g></g></g></svg>