<svg xmlns="http://www.w3.org/2000/svg" xmlns:xlink="http://www.w3.org/1999/xlink" width="120" height="39" viewBox="0 0 120 39"><defs><path id="dwjta" d="M27.342 28.172c.35.01.693-.094.97-.296.27-.222.414-.552.388-.89a1.073 1.073 0 0 0-.389-.904 1.566 1.566 0 0 0-.969-.296h-2.848v2.394zM20 36.98V21.762h7.936a6.036 6.036 0 0 1 2.292.395 4.731 4.731 0 0 1 1.671 1.13 4.784 4.784 0 0 1 1.023 1.666c.234.65.351 1.332.347 2.018a5.742 5.742 0 0 1-.347 2.007 4.81 4.81 0 0 1-1.023 1.654 4.681 4.681 0 0 1-1.67 1.13 5.96 5.96 0 0 1-2.293.395H24.51v4.823z"/><path id="dwjtb" d="M35 36.977V25.6h4.123v1.248c.186-.22.4-.418.638-.587.263-.192.542-.361.836-.506.297-.15.61-.27.934-.355.316-.084.641-.128.969-.13v4.053a2.995 2.995 0 0 0-.934-.118 5.387 5.387 0 0 0-1.38.188 1.96 1.96 0 0 0-1.063.611v6.973z"/><path id="dwjtc" d="M62.32 37.563c-1.186 0-2.09-.296-2.71-.889-.622-.59-.931-1.478-.931-2.658v-4.367H56.92v-3.636h1.759V22.93h3.946v3.079h2.15v3.636h-2.15v3.15c-.008.27.077.533.243.748.149.196.385.309.634.303.167 0 .334-.022.494-.068a.693.693 0 0 0 .297-.142l.704 3.176a2.56 2.56 0 0 1-.989.525 5.59 5.59 0 0 1-1.688.226z"/><path id="dwjtd" d="M73.297 30.36a2.722 2.722 0 0 0-.148-.4 1.538 1.538 0 0 0-.305-.44 1.609 1.609 0 0 0-.528-.343c-.26-.1-.54-.148-.82-.14a1.983 1.983 0 0 0-.792.14 1.64 1.64 0 0 0-.833.784 2.124 2.124 0 0 0-.156.4zm-1.672 7.197a6.895 6.895 0 0 1-2.383-.4c-1.465-.521-2.625-1.61-3.188-2.994a6.102 6.102 0 0 1-.473-2.471 6.058 6.058 0 0 1 .422-2.275 5.365 5.365 0 0 1 1.215-1.86 5.843 5.843 0 0 1 1.864-1.247 6.035 6.035 0 0 1 2.404-.46 5.7 5.7 0 0 1 2.223.428c.686.28 1.299.7 1.792 1.232a5.88 5.88 0 0 1 1.194 1.975c.298.852.441 1.745.422 2.643v.855h-7.36c.145.386.408.723.755.968a2.525 2.525 0 0 0 1.581.44c.193-.005.385-.024.574-.056a6.72 6.72 0 0 0 1.396-.4c.194-.079.372-.188.527-.324l1.662 2.563a4.411 4.411 0 0 1-.953.611 7.554 7.554 0 0 1-2.425.692c-.414.053-.831.08-1.249.08z"/><path id="dwjte" d="M84.176 37.557a6.396 6.396 0 0 1-2.319-.4 5.437 5.437 0 0 1-3.128-3.025 6.223 6.223 0 0 1-.458-2.426c-.01-.821.146-1.636.458-2.398a5.51 5.51 0 0 1 3.129-3.057 6.313 6.313 0 0 1 2.318-.4 6.2 6.2 0 0 1 1.636.196c.447.115.878.281 1.284.495.63.336 1.166.82 1.559 1.407l-2.528 2.518a2.047 2.047 0 0 0-.687-.668 1.978 1.978 0 0 0-1.08-.28 2.068 2.068 0 0 0-1.528.636 1.97 1.97 0 0 0-.541 1.535 2.083 2.083 0 0 0 .621 1.638c.391.362.91.561 1.448.556.381.011.757-.089 1.08-.288.28-.173.515-.407.687-.683l2.515 2.53a3.706 3.706 0 0 1-.609.715 4.7 4.7 0 0 1-.949.68 5.579 5.579 0 0 1-1.284.51 6.375 6.375 0 0 1-1.624.209z"/><path id="dwjtf" d="M95.21 37.563c-1.186 0-2.09-.296-2.71-.889-.622-.59-.935-1.478-.935-2.658v-4.367H89.81v-3.636h1.755V22.93h3.95v3.079h2.15v3.636h-2.15v3.15c-.008.27.077.533.243.748.148.197.385.31.634.303.167 0 .334-.022.494-.068a.722.722 0 0 0 .297-.142l.704 3.176a2.56 2.56 0 0 1-.989.525 5.59 5.59 0 0 1-1.688.226z"/><path id="dwjtg" d="M102.922 36.98V25.777H99.04V21.76h12.115v4.017h-3.854V36.98z"/><path id="dwjth" d="M112.31 36.977V25.6h4.115v1.248a3.45 3.45 0 0 1 .639-.587c.264-.19.544-.36.837-.506.297-.15.61-.27.935-.355a3.86 3.86 0 0 1 .974-.13v4.053a3.051 3.051 0 0 0-.94-.118 5.4 5.4 0 0 0-1.381.188c-.416.087-.79.302-1.064.611v6.973z"/><path id="dwjti" d="M121.234 36.976V25.589h4.124v11.387zm2.055-12.211a2.262 2.262 0 0 1-1.63-.698 2.335 2.335 0 0 1-.515-.751 2.451 2.451 0 0 1 0-1.865c.114-.279.281-.535.494-.755.205-.213.453-.385.729-.506a2.244 2.244 0 0 1 1.806 0c.275.121.523.293.729.506.21.221.378.477.493.755.12.296.182.612.18.93.002.32-.059.637-.18.935-.11.282-.274.542-.485.767a2.262 2.262 0 0 1-.729.51 2.19 2.19 0 0 1-.892.172z"/><path id="dwjtj" d="M134.04 33.94a1.923 1.923 0 0 0 1.379-.569c.42-.445.634-1.04.592-1.646a2.138 2.138 0 0 0-.592-1.614 1.927 1.927 0 0 0-1.379-.577 2.341 2.341 0 0 0-.855.198 1.8 1.8 0 0 0-.79.573v2.869c.195.248.455.44.753.556.279.13.583.202.892.21zm1.333 3.708a3.59 3.59 0 0 1-2.978-1.469v5.476h-3.935V26.108h3.935v1.21c.355-.49.833-.883 1.386-1.141a3.929 3.929 0 0 1 1.584-.327 4.374 4.374 0 0 1 1.826.383 4.18 4.18 0 0 1 1.465 1.13c.441.549.774 1.175.98 1.844.255.822.377 1.679.361 2.538a8.2 8.2 0 0 1-.36 2.554 5.476 5.476 0 0 1-.981 1.852 4.134 4.134 0 0 1-1.465 1.13 4.316 4.316 0 0 1-1.818.367z"/><path id="dwjtk" d="M50.512 26.116c-1.49.684-3.532 1.983-1.15 3.101 2.93 1.368 5.106 1.896 6.408 3.072v-.18c0-3.04-1.98-5.583-4.646-6.259-.18.074-.39.16-.612.266z"/><path id="dwjtl" d="M46.977 37.557h.705c1.41-.05 3.039-.454 3.768-1.903a2.025 2.025 0 0 0-.13-2.24c-.518-.782-1.515-1.667-2.961-2.865-.497-.361-.968-.754-1.41-1.175-1.783-1.9 1.458-3.113 2.8-3.524h-.228c-3.24 0-5.87 2.74-5.87 6.151-.043 2.305 1.237 4.444 3.326 5.556z"/></defs><g><g transform="translate(-20 -11)"><g><g><use fill="#93c83d" xlink:href="#dwjta"/></g><g><use fill="#93c83d" xlink:href="#dwjtb"/></g><g><use fill="#93c83d" xlink:href="#dwjtc"/></g><g><use fill="#93c83d" xlink:href="#dwjtd"/></g><g><use fill="#93c83d" xlink:href="#dwjte"/></g><g><use fill="#93c83d" xlink:href="#dwjtf"/></g><g opacity=".9"><use fill="#fff" xlink:href="#dwjtg"/></g><g opacity=".9"><use fill="#fff" xlink:href="#dwjth"/></g><g opacity=".9"><use fill="#fff" xlink:href="#dwjti"/></g><g opacity=".9"><use fill="#fff" xlink:href="#dwjtj"/></g><g opacity=".9"><use fill="#fff" xlink:href="#dwjtk"/></g><g opacity=".9"><use fill="#fff" xlink:href="#dwjtl"/></g></g></g></g></svg>