<?xml version="1.0" encoding="UTF-8"?>
<svg width="184px" height="25px" viewBox="0 0 184 25" version="1.1" xmlns="http://www.w3.org/2000/svg" xmlns:xlink="http://www.w3.org/1999/xlink">
    <title>HUBBCO LOGO BLACK</title>
    <g id="Page-1" stroke="none" stroke-width="1" fill="none" fill-rule="evenodd">
        <g id="HUBB.CO-LANDING-PAGE" transform="translate(-37.000000, -52.000000)" fill-rule="nonzero">
            <g id="HUBBCO-LOGO-BLACK" transform="translate(37.000000, 52.000000)">
                <g id="Group" transform="translate(58.000000, 0.000000)" fill="#000000">
                    <polygon id="Path" points="0.334286363 1.22222222 4.5128659 1.22222222 4.5128659 10.6111111 15.990031 10.6111111 15.990031 1.22222222 20.1686105 1.22222222 20.1686105 23.8888889 15.990031 23.8888889 15.990031 14.3333333 4.4571515 14.3333333 4.4571515 23.8888889 0.278571969 23.8888889 0.278571969 1.22222222"></polygon>
                    <path d="M27.021481,23.5555556 C25.7957643,22.9444444 24.8486196,22.0555556 24.1800469,20.7777778 C23.5114742,19.5 23.1214734,17.8888889 23.1214734,15.9444444 L23.1214734,6.77777778 L27.1329098,6.77777778 L27.1329098,15.8333333 C27.1329098,17.4444444 27.4671961,18.6111111 28.1357689,19.4444444 C28.8043416,20.2777778 29.8072007,20.6666667 31.1443461,20.6666667 C32.4814916,20.6666667 33.4843507,20.2222222 34.1529234,19.3888889 C34.8214961,18.5555556 35.1557825,17.3333333 35.1557825,15.7777778 L35.1557825,6.77777778 L39.1672188,6.77777778 L39.1672188,15.9444444 C39.1672188,17.8888889 38.8329325,19.5555556 38.1086453,20.7777778 C37.4400726,22.0555556 36.4929279,22.9444444 35.2672113,23.5555556 C34.0414946,24.1666667 32.6486347,24.4444444 31.0886317,24.4444444 C29.6400575,24.4444444 28.2471976,24.1666667 27.021481,23.5555556 Z" id="Path"></path>
                    <path d="M48.3043794,23.5555556 C47.2458059,22.9444444 46.41009,22.1111111 45.7972317,21.0555556 L45.7972317,23.9444444 L41.9529385,23.9444444 L41.9529385,0.444444444 L46.0200893,0.444444444 L46.0200893,7.33333333 L45.9086605,9.61111111 C46.4658044,8.61111111 47.3015203,7.83333333 48.3043794,7.22222222 C49.3629529,6.61111111 50.4772408,6.33333333 51.7029574,6.33333333 C53.3186748,6.33333333 54.7115347,6.72222222 55.9929657,7.55555556 C57.2743968,8.38888889 58.2772559,9.44444444 59.001543,10.8333333 C59.7258301,12.2222222 60.0601165,13.7222222 60.0601165,15.3888889 C60.0601165,17.0555556 59.6701157,18.5555556 58.9458286,19.9444444 C58.2215415,21.3333333 57.2186824,22.4444444 55.9372513,23.2222222 C54.6558203,24.0555556 53.2629604,24.4444444 51.7029574,24.4444444 C50.5329551,24.4444444 49.3629529,24.1111111 48.3043794,23.5555556 Z M53.5415324,20.0555556 C54.3215339,19.6111111 54.9343923,19 55.3801074,18.1666667 C55.8258226,17.3333333 56.0486801,16.3888889 56.0486801,15.3333333 C56.0486801,14.2777778 55.8258226,13.3333333 55.3801074,12.5555556 C54.9343923,11.7222222 54.3215339,11.1111111 53.5415324,10.6666667 C52.7615309,10.2222222 51.925815,10 50.9786703,10 C50.08724,10 49.1958097,10.2222222 48.4715226,10.7222222 C47.6915211,11.2222222 47.0786627,11.8333333 46.6329476,12.6666667 C46.1872324,13.5 45.9643749,14.3888889 45.9643749,15.3888889 C45.9643749,16.3888889 46.1872324,17.3333333 46.6329476,18.1666667 C47.0786627,19 47.6915211,19.6111111 48.4715226,20.1111111 C49.2515241,20.5555556 50.08724,20.7777778 50.9786703,20.7777778 C51.925815,20.7222222 52.8172453,20.5 53.5415324,20.0555556 Z" id="Shape"></path>
                    <path d="M68.6958475,23.5555556 C67.637274,22.9444444 66.8015581,22.1111111 66.1886998,21.0555556 L66.1886998,23.9444444 L62.400121,23.9444444 L62.400121,0.444444444 L66.4672718,0.444444444 L66.4672718,7.33333333 L66.355843,9.61111111 C66.9129869,8.61111111 67.7487028,7.83333333 68.7515619,7.22222222 C69.8101354,6.61111111 70.9244233,6.33333333 72.1501399,6.33333333 C73.7658573,6.33333333 75.1587172,6.72222222 76.4401482,7.55555556 C77.7215793,8.38888889 78.7244384,9.44444444 79.4487255,10.8333333 C80.1730126,12.2222222 80.507299,13.7222222 80.507299,15.3888889 C80.507299,17.0555556 80.1172982,18.5555556 79.3930111,19.9444444 C78.668724,21.3333333 77.6658649,22.4444444 76.3844339,23.2222222 C75.1030028,24.0555556 73.710143,24.4444444 72.1501399,24.4444444 C70.9244233,24.4444444 69.754421,24.1111111 68.6958475,23.5555556 Z M73.9887149,20.0555556 C74.7687164,19.6111111 75.3815748,19 75.8272899,18.1666667 C76.2730051,17.3333333 76.4958626,16.3888889 76.4958626,15.3333333 C76.4958626,14.2777778 76.2730051,13.3333333 75.8272899,12.5555556 C75.3815748,11.7222222 74.7687164,11.1111111 73.9887149,10.6666667 C73.2087134,10.2222222 72.3729975,10 71.4258528,10 C70.5344225,10 69.6429922,10.2222222 68.9187051,10.7222222 C68.1387036,11.2222222 67.5258452,11.8333333 67.0801301,12.6666667 C66.6344149,13.5 66.4115574,14.3888889 66.4115574,15.3888889 C66.4115574,16.3888889 66.6344149,17.3333333 67.0801301,18.1666667 C67.5258452,19 68.1387036,19.6111111 68.9187051,20.1111111 C69.6987066,20.5555556 70.5344225,20.7777778 71.4258528,20.7777778 C72.3729975,20.7222222 73.2087134,20.5 73.9887149,20.0555556 Z" id="Shape"></path>
                    <path d="M88.5301717,22.8333333 C86.6915967,21.7777778 85.2430225,20.3333333 84.184449,18.5555556 C83.1258755,16.7222222 82.5687316,14.7777778 82.5687316,12.6111111 C82.5687316,10.4444444 83.1258755,8.44444444 84.184449,6.66666667 C85.2430225,4.83333333 86.6915967,3.44444444 88.5301717,2.38888889 C90.3687467,1.33333333 92.3744649,0.777777778 94.6030406,0.777777778 C96.2744724,0.777777778 97.8901898,1.11111111 99.4501929,1.77777778 C101.010196,2.44444444 102.347341,3.44444444 103.405915,4.77777778 C104.520203,6.11111111 105.24449,7.72222222 105.578776,9.66666667 L101.344482,9.66666667 C100.898767,8 100.063051,6.72222222 98.8930489,5.88888889 C97.6673323,5.05555556 96.218758,4.61111111 94.5473262,4.61111111 C93.098752,4.61111111 91.8173209,4.94444444 90.6473187,5.61111111 C89.4773164,6.27777778 88.5301717,7.22222222 87.861599,8.44444444 C87.1930262,9.66666667 86.8587399,11.0555556 86.8587399,12.6666667 C86.8587399,14.2777778 87.1930262,15.6666667 87.861599,16.8888889 C88.5301717,18.1111111 89.4773164,19.0555556 90.6473187,19.7222222 C91.8173209,20.3888889 93.1544664,20.7222222 94.5473262,20.7222222 C96.218758,20.7222222 97.7230467,20.2777778 98.8930489,19.4444444 C100.118766,18.6111111 100.954482,17.3333333 101.344482,15.6666667 L105.634491,15.6666667 C105.300204,17.6111111 104.575917,19.2222222 103.461629,20.5555556 C102.347341,21.8888889 101.010196,22.8888889 99.5059073,23.5555556 C97.9459042,24.2222222 96.3301868,24.5555556 94.658755,24.5555556 C92.3744649,24.3888889 90.3687467,23.8888889 88.5301717,22.8333333 Z" id="Path"></path>
                    <path d="M112.208789,23.2222222 C110.815929,22.3888889 109.757356,21.3333333 108.977354,19.9444444 C108.197353,18.5555556 107.807352,17.0555556 107.807352,15.3888889 C107.807352,13.7222222 108.197353,12.2222222 108.977354,10.8333333 C109.757356,9.44444444 110.815929,8.33333333 112.208789,7.55555556 C113.601649,6.72222222 115.105938,6.33333333 116.833084,6.33333333 C118.56023,6.33333333 120.120233,6.72222222 121.513093,7.55555556 C122.905953,8.38888889 123.964526,9.44444444 124.744528,10.8333333 C125.524529,12.2222222 125.91453,13.7222222 125.91453,15.3888889 C125.91453,17.0555556 125.524529,18.6111111 124.744528,20 C123.964526,21.3888889 122.905953,22.5 121.513093,23.2777778 C120.120233,24.1111111 118.56023,24.5 116.833084,24.5 C115.105938,24.4444444 113.545934,24.0555556 112.208789,23.2222222 Z M119.45166,20 C120.231662,19.5555556 120.84452,18.8888889 121.234521,18.1111111 C121.680236,17.2777778 121.903094,16.3888889 121.903094,15.3333333 C121.903094,14.3333333 121.680236,13.3888889 121.234521,12.6111111 C120.788806,11.7777778 120.175947,11.1666667 119.395946,10.6666667 C118.615944,10.2222222 117.780228,10 116.833084,10 C115.885939,10 115.050223,10.2222222 114.270222,10.6666667 C113.49022,11.1111111 112.877362,11.7777778 112.431647,12.6111111 C111.985931,13.4444444 111.763074,14.3333333 111.763074,15.3333333 C111.763074,16.3333333 111.985931,17.2777778 112.431647,18.1111111 C112.877362,18.9444444 113.49022,19.5555556 114.214507,20 C114.994509,20.4444444 115.830225,20.6666667 116.777369,20.6666667 C117.780228,20.6666667 118.671659,20.4444444 119.45166,20 Z" id="Shape"></path>
                </g>
                <path d="M44.5323148,3.06386671 C42.1866007,-0.0618927384 37.7185739,-0.675881202 34.6468055,1.72425552 L34.6468055,1.72425552 L32.3569417,3.39876951 L32.3569417,3.39876951 L9.40245404,20.8695322 L9.40245404,20.8695322 C8.62054935,21.4835206 7.61524332,21.7626063 6.60993729,21.5951549 C5.60463126,21.4835206 4.7110259,20.9253493 4.09667222,20.1439094 C3.48231853,19.3624696 3.20306686,18.3577612 3.37061786,17.3530528 C3.48231853,16.3483444 4.04082188,15.4552702 4.82272657,14.8412818 L10.8545628,10.2642769 C10.4077601,12.7202307 10.6870117,15.343636 11.8040184,17.7437727 L14.4848345,15.6785388 C13.1444265,11.994608 14.2614332,7.69668876 17.556603,5.18491777 C19.232113,3.90112371 21.1868747,3.28713524 23.1416365,3.28713524 C25.0405478,3.28713524 26.9394592,3.90112371 28.5032686,5.01746637 L31.1840847,2.95223245 C26.8277586,-0.731698335 20.2932694,-1.06660113 15.5459909,2.50569538 L15.5459909,2.50569538 L2.81211451,12.2178765 C1.30415547,13.3342192 0.354699771,15.0087332 0.0754480958,16.9065157 C-0.203803579,18.8042982 0.298849436,20.6462636 1.47170647,22.1533262 C2.58871317,23.6603888 4.26422322,24.6092801 6.16313461,24.8883657 C6.49823662,24.9441829 6.83333863,24.9441829 7.11259031,24.9441829 C8.62054935,24.9441829 10.1285084,24.4418287 11.3572158,23.4929374 L11.3572158,23.4929374 L32.7478941,7.25015169 L32.7478941,7.25015169 L36.6015672,4.34766077 L36.6015672,4.34766077 C37.3834719,3.73367231 38.3887779,3.45458664 39.3940839,3.62203804 C40.39939,3.73367231 41.2929953,4.29184364 41.907349,5.0732835 C43.1919067,6.74779749 42.8568047,9.14793421 41.1812947,10.3759111 L35.3728598,14.7854647 C35.8196625,12.3295108 35.5404108,9.70610554 34.4234041,7.30596882 L31.7984384,9.31538561 C33.0829961,12.7760479 32.1335404,16.7948814 29.2851733,19.3624696 C29.1734726,19.4182867 29.061772,19.4741038 28.9500713,19.529921 L29.0059216,19.5857381 C28.894221,19.6415552 28.8383706,19.7531895 28.72667,19.8090066 C25.4315002,22.3207776 20.9634734,22.2649605 17.7800043,19.976458 L15.0433379,22.0416919 C17.3332016,23.9952916 20.237419,25 23.1416365,25 C25.7666022,25 28.4474183,24.162743 30.6814317,22.488229 C30.8489827,22.3207776 31.072384,22.2091433 31.239935,22.0416919 C31.407486,21.9300577 31.5191867,21.8742405 31.6867377,21.7626063 L43.1919067,12.9993164 C46.3195255,10.5991797 46.9338792,6.13380903 44.5323148,3.06386671 Z" id="Path" fill="#D95842"></path>
            </g>
        </g>
    </g>
</svg>