<?xml version="1.0" encoding="utf-8"?>
<!-- Generator: Adobe Illustrator 22.0.0, SVG Export Plug-In . SVG Version: 6.00 Build 0)  -->
<svg version="1.1" id="Capa_1" xmlns="http://www.w3.org/2000/svg" xmlns:xlink="http://www.w3.org/1999/xlink" x="0px" y="0px"
	 viewBox="0 0 16 18" style="enable-background:new 0 0 16 18;" xml:space="preserve">
<g>
	<g>
		<g>
			<path d="M11.9,3.8h-5c-0.4,0-0.7,0.3-0.7,0.7c0,0.4,0.3,0.7,0.7,0.7h5c0.4,0,0.7-0.3,0.7-0.7C12.6,4.1,12.3,3.8,11.9,3.8z"/>
		</g>
	</g>
	<g>
		<g>
			<path d="M11.9,6.6h-5c-0.4,0-0.7,0.3-0.7,0.7S6.5,8,6.9,8h5c0.4,0,0.7-0.3,0.7-0.7S12.3,6.6,11.9,6.6z"/>
		</g>
	</g>
	<g>
		<g>
			<path d="M9.1,9.4H6.9c-0.4,0-0.7,0.3-0.7,0.7s0.3,0.7,0.7,0.7h2.1c0.4,0,0.7-0.3,0.7-0.7S9.4,9.4,9.1,9.4z"/>
		</g>
	</g>
	<g>
		<g>
			<path d="M14.8,9.6c0.4,0,0.7-0.3,0.7-0.7v-6c0-1.6-1.3-2.8-2.8-2.8H6.2C4.6,0,3.4,1.3,3.4,2.8c-1.6,0-2.8,1.3-2.8,2.8v9.6
				c0,1.6,1.3,2.8,2.8,2.8h6.8c1.6,0,2.8-1.3,2.8-2.8v0c1.4-0.2,2.5-1.4,2.5-2.8c0-0.4-0.3-0.7-0.7-0.7c-0.4,0-0.7,0.3-0.7,0.7
				c0,0.8-0.6,1.4-1.4,1.4l-6.5,0h0c-0.4,0-0.7-0.1-1-0.4c-0.3-0.3-0.4-0.6-0.4-1V2.8c0-0.8,0.6-1.4,1.4-1.4h6.5
				C13.4,1.4,14,2,14,2.8v6C14,9.2,14.4,9.6,14.8,9.6z M6.2,15.2L6.2,15.2l5.4,0c0,0.8-0.6,1.4-1.4,1.4H3.4C2.6,16.6,2,16,2,15.2
				V5.6c0-0.8,0.6-1.4,1.4-1.4v8.2c0,0.8,0.3,1.5,0.8,2C4.7,14.9,5.4,15.2,6.2,15.2z"/>
		</g>
	</g>
</g>
</svg>
