<?xml version="1.0" encoding="UTF-8"?>
<svg width="16px" height="18px" viewBox="0 0 16 18" version="1.1" xmlns="http://www.w3.org/2000/svg" xmlns:xlink="http://www.w3.org/1999/xlink">
    <!-- Generator: sketchtool 64 (101010) - https://sketch.com -->
    <title>7C4D3D6B-B116-4C9C-93D1-8B0C0AB0687C</title>
    <desc>Created with sketchtool.</desc>
    <g id="WIP" stroke="none" stroke-width="1" fill="none" fill-rule="evenodd">
        <g id="Style_Guide" transform="translate(-338.000000, -436.000000)" fill="#000000">
            <g id="Group-15" transform="translate(107.000000, 436.000000)">
                <g id="007-trash" transform="translate(231.000000, 0.000000)">
                    <path d="M15.3220339,2.81355932 L11.220339,2.81355932 L11.220339,2.03389831 C11.220339,0.91240678 10.3079322,0 9.18644068,0 L6.81355932,0 C5.6920678,0 4.77966102,0.91240678 4.77966102,2.03389831 L4.77966102,2.81355932 L0.677966102,2.81355932 C0.303525424,2.81355932 0,3.11708475 0,3.49152542 C0,3.8659661 0.303525424,4.16949153 0.677966102,4.16949153 L1.3800678,4.16949153 L2.20630508,14.8809153 C2.20654237,14.8840339 2.20681356,14.8871864 2.20708475,14.890339 C2.26864407,15.5657288 2.57840678,16.1895254 3.07928814,16.6468136 C3.58016949,17.1041017 4.22952542,17.3559322 4.90772881,17.3559322 L11.0922712,17.3559322 C12.5047119,17.3559322 13.6657288,16.304 13.7929153,14.9090508 C13.8269153,14.5361356 13.5522034,14.2063051 13.179322,14.1723051 C12.8060678,14.1383051 12.4765763,14.4130169 12.4425763,14.7858983 C12.3794915,15.4780678 11.7989831,16 11.0922712,16 L4.90772881,16 C4.20342373,16 3.62383051,15.4721695 3.55779661,14.7714576 L2.7400339,4.16949153 L13.2599661,4.16949153 L12.6809153,11.676678 C12.6521356,12.05 12.9314237,12.3759661 13.3047458,12.4047797 C13.3225085,12.4061356 13.3401017,12.4068136 13.3576271,12.4068136 C13.7083729,12.4068136 14.0054237,12.1365085 14.0328475,11.7809492 L14.6199322,4.16949153 L15.3220339,4.16949153 C15.6964746,4.16949153 16,3.8659661 16,3.49152542 C16,3.11708475 15.6964746,2.81355932 15.3220339,2.81355932 Z M9.86440678,2.81355932 L6.13559322,2.81355932 L6.13559322,2.03389831 C6.13559322,1.6600678 6.43972881,1.3559322 6.81355932,1.3559322 L9.18644068,1.3559322 C9.56027119,1.3559322 9.86440678,1.6600678 9.86440678,2.03389831 L9.86440678,2.81355932 Z" id="Shape" fill-rule="nonzero"></path>
                    <path d="M4.91955932,5.5260678 C4.54549153,5.54240678 4.25549153,5.85888136 4.27183051,6.23298305 L4.61081356,13.9934237 C4.62671186,14.3574237 4.92681356,14.6418305 5.28762712,14.6418305 C5.29759322,14.6418305 5.30766102,14.6416271 5.31772881,14.6411525 C5.69179661,14.6248136 5.98179661,14.308339 5.96545763,13.9342373 L5.62647458,6.17376271 C5.61013559,5.79972881 5.29305085,5.50925424 4.91955932,5.5260678 Z" id="Path"></path>
                    <path d="M10.3735254,6.17379661 L10.0345424,13.9342712 C10.0182034,14.308339 10.3082034,14.6248475 10.6822712,14.6411864 C10.692339,14.6416271 10.7023729,14.6418644 10.7123729,14.6418644 C11.0731525,14.6418644 11.3732881,14.3574576 11.3891864,13.9934576 L11.7281695,6.23301695 C11.7445085,5.85894915 11.4545085,5.54244068 11.0804407,5.52610169 C10.7069831,5.50938983 10.3898644,5.79972881 10.3735254,6.17379661 Z" id="Path"></path>
                    <path d="M7.3220339,6.20338983 L7.3220339,13.9638305 C7.3220339,14.3382712 7.62555932,14.6417966 8,14.6417966 C8.37444068,14.6417966 8.6779661,14.3382712 8.6779661,13.9638305 L8.6779661,6.20338983 C8.6779661,5.82894915 8.37444068,5.52542373 8,5.52542373 C7.62555932,5.52542373 7.3220339,5.82894915 7.3220339,6.20338983 Z" id="Path"></path>
                </g>
            </g>
        </g>
    </g>
</svg>