<?xml version="1.0" encoding="UTF-8"?>
<svg width="60px" height="60px" viewBox="0 0 60 60" version="1.1" xmlns="http://www.w3.org/2000/svg" xmlns:xlink="http://www.w3.org/1999/xlink">
    <!-- Generator: sketchtool 64 (101010) - https://sketch.com -->
    <title>F295C7C4-8E64-4F4C-BD00-CF73032DCC9F</title>
    <desc>Created with sketchtool.</desc>
    <g id="WIP" stroke="none" stroke-width="1" fill="none" fill-rule="evenodd">
        <g id="Style_Guide" transform="translate(-325.000000, -472.000000)" fill-rule="nonzero">
            <g id="Group-2" transform="translate(325.000000, 472.000000)">
                <g id="Group-5">
                    <g id="Group-15">
                        <rect id="Rectangle-Copy" stroke="#EDEDED" stroke-width="1.3" fill="#FFFFFF" x="0.65" y="0.65" width="58.7" height="58.7" rx="7.8"></rect>
                        <g id="004-edit" transform="translate(16.138889, 16.444444)" fill="#CC322F">
                            <path d="M15.0172222,3.553326e-15 C15.4480043,3.5797038e-15 15.7972222,0.349217895 15.7972222,0.78 L15.797,12.309 L27.9761905,12.3095238 C28.3882124,12.3095238 28.7222222,12.6435336 28.7222222,13.0555556 C28.7222222,13.4675775 28.3882124,13.8015873 27.9761905,13.8015873 L15.797,13.801 L15.7972222,25.3311111 C15.7972222,25.7618932 15.4480043,26.1111111 15.0172222,26.1111111 L15.0105556,26.1111111 C14.5797735,26.1111111 14.2305556,25.7618932 14.2305556,25.3311111 L14.23,13.801 L0.746031746,13.8015873 C0.33400979,13.8015873 5.0458137e-17,13.4675775 0,13.0555556 C-5.0458137e-17,12.6435336 0.33400979,12.3095238 0.746031746,12.3095238 L14.23,12.309 L14.2305556,0.78 C14.2305556,0.349217895 14.5797735,4.63594658e-15 15.0105556,3.55210136e-15 L15.0172222,3.553326e-15 Z" id="Combined-Shape"></path>
                        </g>
                    </g>
                </g>
            </g>
        </g>
    </g>
</svg>