<?xml version="1.0" encoding="UTF-8"?>
<svg width="16px" height="18px" viewBox="0 0 16 18" version="1.1" xmlns="http://www.w3.org/2000/svg" xmlns:xlink="http://www.w3.org/1999/xlink">
    <!-- Generator: sketchtool 64 (101010) - https://sketch.com -->
    <title>5E7D7D6B-7430-4D58-ABDA-C64FD3A2A96D</title>
    <desc>Created with sketchtool.</desc>
    <g id="WIP" stroke="none" stroke-width="1" fill="none" fill-rule="evenodd">
        <g id="Style_Guide" transform="translate(-227.000000, -436.000000)" fill="#000000">
            <g id="Group-15" transform="translate(107.000000, 436.000000)">
                <g id="005-play" transform="translate(120.000000, 0.000000)">
                    <path d="M13.9692216,6.71157259 L3.66254953,0.358347717 C2.91688362,-0.100715 2.01535656,-0.119801429 1.25091097,0.307291518 C0.486465377,0.734316299 0.0300952097,1.51212239 0.0300952097,2.38774644 L0.0300952097,15.0363234 C0.0300952097,16.3603081 1.0968903,17.4432244 2.40805985,17.4504159 C2.41163856,17.4504159 2.41521726,17.4504159 2.4187278,17.4504159 C2.82847255,17.4504159 3.25546325,17.3219574 3.65426738,17.0786055 C3.97508981,16.8828673 4.07648647,16.4641247 3.88074832,16.1433363 C3.68501016,15.8224798 3.26619936,15.7211172 2.94547918,15.9168554 C2.75894341,16.0306241 2.57677026,16.0894853 2.41538768,16.0894512 C1.92067424,16.0867587 1.39099173,15.6629718 1.39099173,15.0363575 L1.39099173,2.38778052 C1.39099173,2.01215277 1.58676397,1.67858333 1.91464156,1.49538768 C2.24255324,1.31219204 2.62922386,1.32037194 2.94868297,1.51706441 L13.2553891,7.87028928 C13.5651687,8.06101725 13.7424339,8.37904488 13.741684,8.74284586 C13.7409342,9.10661276 13.5623739,9.42392466 13.2508901,9.61400505 L5.79910491,14.1766161 C5.47858923,14.3728655 5.37784014,14.7917785 5.57408954,15.1122601 C5.77030486,15.4327758 6.1892179,15.5335249 6.50973359,15.3372755 L13.9606327,10.7752098 C14.6740221,10.3400051 15.1009446,9.58131954 15.1026539,8.7455725 C15.1043529,7.90992771 14.6804978,7.14946981 13.9692216,6.71157259 Z" id="Path"></path>
                </g>
            </g>
        </g>
    </g>
</svg>