<?xml version="1.0" encoding="UTF-8"?>
<svg width="21px" height="18px" viewBox="0 0 21 18" version="1.1" xmlns="http://www.w3.org/2000/svg" xmlns:xlink="http://www.w3.org/1999/xlink">
    <!-- Generator: sketchtool 64 (101010) - https://sketch.com -->
    <title>3F3EDDC1-18AE-4639-907D-B00DFEA680FC</title>
    <desc>Created with sketchtool.</desc>
    <g id="WIP" stroke="none" stroke-width="1" fill="none" fill-rule="evenodd">
        <g id="Style_Guide" transform="translate(-107.000000, -474.000000)" fill="#CC322F" fill-rule="nonzero">
            <g id="Group-15" transform="translate(107.000000, 436.000000)">
                <g id="063-picture" transform="translate(0.000000, 38.000000)">
                    <path d="M20.0816327,13.877551 C19.6307755,13.877551 19.2653061,14.2430204 19.2653061,14.6938776 C19.2653061,15.5941224 18.532898,16.3265306 17.6326531,16.3265306 L11.4014286,16.3265306 L9.5244898,13.8915918 L15.4488571,6.35616327 L19.451551,11.1313061 C19.4595102,11.1409388 19.4676735,11.1504082 19.4760408,11.1596327 C19.4763265,11.1599592 19.4766122,11.1602857 19.476898,11.1606122 C19.4778776,11.1617143 19.478898,11.1628163 19.4799184,11.1639184 C19.5542449,11.245102 19.6415918,11.308 19.7360816,11.3520408 C19.8331429,11.3974286 19.9406531,11.4242857 20.0539592,11.4280408 C20.0560408,11.4281224 20.0581224,11.4282041 20.0602041,11.4282449 C20.0605714,11.4282449 20.0609388,11.4282449 20.0612653,11.4282857 C20.1195918,11.4297551 20.1781224,11.4250204 20.2357959,11.414 L20.2379592,11.4135918 C20.2404898,11.413102 20.2430204,11.4126122 20.2455918,11.4120816 C20.2466122,11.4118776 20.2476735,11.4116327 20.2487347,11.4114286 C20.2509388,11.4109796 20.2531429,11.4105306 20.2553469,11.4100408 C20.2565714,11.4097551 20.2577959,11.4095102 20.2590204,11.4092245 C20.2610204,11.4087755 20.2630204,11.4083265 20.2650204,11.4078776 C20.266449,11.407551 20.2678776,11.4072245 20.2692653,11.4068571 C20.2710612,11.406449 20.2728571,11.406 20.2746531,11.4055918 C20.2762041,11.4052245 20.2777143,11.4048163 20.2792653,11.404449 C20.2809388,11.4040408 20.2826531,11.4035918 20.2843265,11.4031837 C20.2858776,11.4027755 20.2873878,11.4023673 20.2889388,11.4019592 C20.2906531,11.4015102 20.2923265,11.4010612 20.2940408,11.4006122 C20.2955918,11.4002041 20.2971429,11.3997551 20.2986939,11.3993469 L20.3034694,11.3980408 C20.3051429,11.397551 20.3068163,11.3970612 20.3084898,11.3966122 C20.3101224,11.3961633 20.3117143,11.3956735 20.3133061,11.3952245 C20.3146122,11.3948571 20.3159184,11.394449 20.3172653,11.3940408 C20.3192653,11.3934286 20.3213061,11.3928163 20.3232653,11.3922041 C20.3243673,11.3918776 20.3254694,11.3915102 20.3265306,11.3911837 C20.3285714,11.3905714 20.3305714,11.3899184 20.3326122,11.3892653 C20.3338367,11.3888571 20.3350612,11.388449 20.3362857,11.3880408 C20.3382857,11.3873878 20.3403265,11.3866939 20.3423265,11.3860408 C20.3432653,11.3857143 20.3442041,11.3853878 20.3451429,11.385102 C20.3473878,11.3843265 20.3496735,11.383551 20.3519184,11.3827755 C20.3527755,11.3824898 20.3536327,11.3821633 20.3544898,11.3818776 C20.3568163,11.3810612 20.359102,11.3802449 20.3613878,11.3793878 C20.3621224,11.379102 20.3628571,11.3788571 20.3635918,11.3785714 C20.3661224,11.3776327 20.3686122,11.3767347 20.371102,11.3757551 L20.3723673,11.3752653 C20.3751429,11.3742041 20.3779184,11.3731429 20.3806939,11.3720408 C20.3808571,11.372 20.3810204,11.3719184 20.3811837,11.3718367 C20.3841633,11.3706531 20.3871429,11.3694694 20.3901224,11.3682449 C20.4264082,11.3534286 20.4619184,11.3358367 20.4963673,11.3154694 C20.4968571,11.3151837 20.4973469,11.314898 20.4978367,11.3146122 C20.5001633,11.3132245 20.5024898,11.3118367 20.5048163,11.310449 C20.5488163,11.2837143 20.5900816,11.2529388 20.6281224,11.2186122 C20.6288163,11.218 20.6294694,11.2173878 20.6301633,11.2167755 C20.6307755,11.2162041 20.6313878,11.2156327 20.632,11.215102 C20.7138367,11.140449 20.7772245,11.0526122 20.8215102,10.9575102 C20.8670204,10.8600816 20.8938776,10.7522041 20.8974694,10.6384082 C20.8975102,10.6369388 20.897551,10.6355102 20.8975918,10.6340408 C20.8975918,10.633102 20.8976327,10.6321633 20.8976327,10.6312653 C20.8976735,10.6284898 20.8979592,10.6256735 20.8979592,10.622898 C20.8979592,10.6228163 20.8979592,10.6227755 20.8979592,10.6226939 C20.8979592,10.6184082 20.8979592,10.6140816 20.8979592,10.6097551 L20.8979592,3.26530612 C20.8979592,1.46481633 19.4330204,0 17.6325306,0 L3.26530612,0 C1.46481633,0 0,1.46477551 0,3.26530612 L0,14.6938776 C0,16.4943673 1.46481633,17.9592245 3.26530612,17.9592245 L10.9948571,17.9592245 C10.9967755,17.9592245 10.9986939,17.9592245 11.0006122,17.9592245 C11.0031837,17.9592245 11.0057143,17.9592245 11.0082857,17.9592245 L17.6326531,17.9592245 C19.4331429,17.9592245 20.8979592,16.4943673 20.8979592,14.6938776 C20.8979592,14.2429796 20.5324898,13.877551 20.0816327,13.877551 Z M3.26530612,16.3265306 C2.36506122,16.3265306 1.63265306,15.5941224 1.63265306,14.6938776 L1.63265306,3.26530612 C1.63265306,2.36506122 2.36506122,1.63265306 3.26530612,1.63265306 L17.6326531,1.63265306 C18.532898,1.63265306 19.2653061,2.36506122 19.2653061,3.26530612 L19.2653061,8.36763265 L16.0541633,4.53681633 C15.8962041,4.34832653 15.6622041,4.24126531 15.4157959,4.24497959 C15.1699184,4.24881633 14.9388163,4.36334694 14.7868571,4.55665306 L8.49632653,12.5577143 L6.36081633,9.78730612 C6.20628571,9.58677551 5.96742857,9.46934694 5.71428571,9.46934694 L5.71387755,9.46934694 C5.46057143,9.46946939 5.22167347,9.58718367 5.06722449,9.78795918 L3.27069388,12.1234286 C2.99583673,12.4807755 3.06265306,12.9933061 3.42,13.2682041 C3.77742857,13.543102 4.28991837,13.4762449 4.56477551,13.118898 L5.71493878,11.6236735 L9.34008163,16.3265306 L3.26530612,16.3265306 Z" id="Shape"></path>
                    <path d="M7.84375,5.54375 C8.0957323,5.54375 8.3,5.7480177 8.3,6 C8.3,6.2519823 8.0957323,6.45625 7.84375,6.45625 L6.45625,6.45625 L6.45625,7.84375 C6.45625,8.0957323 6.2519823,8.3 6,8.3 C5.7480177,8.3 5.54375,8.0957323 5.54375,7.84375 L5.54375,6.45625 L4.15625,6.45625 C3.9042677,6.45625 3.7,6.2519823 3.7,6 C3.7,5.7480177 3.9042677,5.54375 4.15625,5.54375 L5.54375,5.54375 L5.54375,4.15625 C5.54375,3.9042677 5.7480177,3.7 6,3.7 C6.2519823,3.7 6.45625,3.9042677 6.45625,4.15625 L6.45625,5.54375 L7.84375,5.54375 Z" id="Path"></path>
                </g>
            </g>
        </g>
    </g>
</svg>