<svg xmlns="http://www.w3.org/2000/svg" xmlns:xlink="http://www.w3.org/1999/xlink" width="24" height="24" viewBox="0 0 24 24"><defs><path id="nwmpa" d="M1039 282c0 6.628-5.372 12-12 12s-12-5.372-12-12 5.372-12 12-12 12 5.372 12 12z"/><path id="nwmpb" d="M1027.477 291.32a9.334 9.334 0 0 0 8.832-9.972l-2.967-2.967-1.125.583-1.792-1.79-10.172 6.268 3.445 3.445-.279.375z"/><path id="nwmpc" d="M1025.656 287.267h-2.231l-1.412-4.027h2.232z"/><path id="nwmpd" d="M1024.247 283.24h-1.1l1.37 4.027h1.141z"/><path id="nwmpe" d="M1030.422 285.934l-8.635-2.492v-3.778l8.635-2.49z"/><path id="nwmpf" d="M1021.787 281.52v1.924l8.635 2.492v-4.416z"/><path id="nwmpg" d="M1020.253 279.667h1.537v3.778h-1.537z"/><path id="nwmph" d="M1020.253 281.52h1.537v1.924h-1.537z"/><path id="nwmpi" d="M1031.307 281.16h2.625v.802h-2.625z"/><path id="nwmpj" d="M1031.307 281.56h2.625v.401h-2.625z"/><path id="nwmpk" d="M1030.733 279.215l2.158-1.495.457.66-2.158 1.494z"/><path id="nwmpl" d="M1031.19 283.227l2.158 1.494-.457.66-2.158-1.495z"/></defs><g><g transform="translate(-1015 -270)"><g><g><use fill="#fb1e1e" xlink:href="#nwmpa"/></g><g><use fill="#db0404" xlink:href="#nwmpb"/></g><g><use fill="#a3d4ff" xlink:href="#nwmpc"/></g><g><use fill="#87c7ff" xlink:href="#nwmpd"/></g><g><use fill="#fff" xlink:href="#nwmpe"/></g><g><use fill="#e9edf5" xlink:href="#nwmpf"/></g><g><use fill="#a3d4ff" xlink:href="#nwmpg"/></g><g><use fill="#87c7ff" xlink:href="#nwmph"/></g><g><use fill="#ffe000" xlink:href="#nwmpi"/></g><g><use fill="#ffc200" xlink:href="#nwmpj"/></g><g><use fill="#ffe000" xlink:href="#nwmpk"/></g><g><use fill="#ffc200" xlink:href="#nwmpl"/></g></g></g></g></svg>