<svg xmlns="http://www.w3.org/2000/svg" xmlns:xlink="http://www.w3.org/1999/xlink" width="46" height="46" viewBox="0 0 46 46"><defs><path id="7cg0a" d="M710.562 279.664a1.614 1.614 0 0 0-2.28 2.28l7.43 7.431c.315.315.708.472 1.14.472h.08c.432-.04.864-.236 1.179-.59l18.596-22.292c.55-.668.472-1.69-.196-2.28-.669-.55-1.69-.472-2.28.196l-17.496 20.956-6.173-6.173z"/><path id="7cg0b" d="M732.076 261.659c-9.054-5.662-20.666-4.325-28.224 3.224-8.896 8.885-8.896 23.393 0 32.279a22.822 22.822 0 0 0 16.14 6.683 22.821 22.821 0 0 0 16.138-6.683c7.597-7.588 8.896-19.226 3.189-28.269a1.6 1.6 0 0 0-2.716 1.69c4.92 7.785 3.779 17.772-2.756 24.298-7.636 7.628-20.115 7.628-27.751 0-7.637-7.627-7.637-20.09 0-27.718 6.534-6.487 16.493-7.627 24.287-2.791a1.6 1.6 0 0 0 2.205-.511 1.596 1.596 0 0 0-.512-2.202z"/></defs><g><g transform="translate(-697 -258)"><g><g><use fill="#93c83d" xlink:href="#7cg0a"/></g><g><use fill="#93c83d" xlink:href="#7cg0b"/></g></g></g></g></svg>