<?xml version="1.0" encoding="UTF-8"?>
<svg width="35px" height="20px" viewBox="0 0 35 20" version="1.1" xmlns="http://www.w3.org/2000/svg" xmlns:xlink="http://www.w3.org/1999/xlink">
    <title>Path</title>
    <g id="Symbols" stroke="none" stroke-width="1" fill="none" fill-rule="evenodd">
        <g id="HOMEPAGE-TOP-NAV-SKIN" transform="translate(-34.000000, -24.000000)" fill="#D95842" fill-rule="nonzero">
            <g id="HUBBCO-LOGO-BLACK" transform="translate(34.000000, 24.000000)">
                <path d="M33.883283,2.51035688 C32.0985005,0.134779701 28.6989149,-0.331851532 26.3616998,1.49225238 L26.3616998,1.49225238 L24.6194122,2.76488301 L24.6194122,2.76488301 L7.15404112,16.0426626 L7.15404112,16.0426626 C6.55911364,16.5092939 5.79420687,16.721399 5.02930011,16.5941359 C4.26439335,16.5092939 3.58447623,16.0850836 3.11703321,15.4911893 C2.64959019,14.897295 2.43711609,14.1337167 2.56460055,13.3701383 C2.64959019,12.6065599 3.07453839,11.9278236 3.66946587,11.4611923 L8.25890644,7.98266861 C7.91894788,9.84919354 8.13142198,11.8429815 8.98131838,13.6670854 L11.0210697,12.0975077 C10.0011941,9.29772026 10.8510905,6.03130164 13.3582849,4.12235569 C14.6331295,3.1466722 16.1204482,2.68004097 17.6077669,2.68004097 C19.0525907,2.68004097 20.4974146,3.1466722 21.6872696,3.99509262 L23.727021,2.42551484 C20.412425,-0.374272553 15.440531,-0.628798679 11.8284713,2.08614667 L11.8284713,2.08614667 L2.13965235,9.46740435 C0.992292202,10.3158248 0.26988026,11.5884554 0.0574061598,13.0307701 C-0.155067941,14.4730848 0.22738544,15.8729785 1.11977666,17.0183461 C1.96967306,18.1637137 3.24451767,18.884871 4.68934155,19.0969761 C4.94431047,19.1393972 5.19927939,19.1393972 5.41175349,19.1393972 C6.55911364,19.1393972 7.70647378,18.757608 8.64135982,18.0364506 L8.64135982,18.0364506 L24.9168759,5.69193347 L24.9168759,5.69193347 L27.8490185,3.48604037 L27.8490185,3.48604037 C28.443946,3.01940914 29.2088528,2.80730403 29.9737595,2.93456709 C30.7386663,3.01940914 31.4185834,3.44361935 31.8860264,4.03751364 C32.8634073,5.31014428 32.6084384,7.13424818 31.3335938,8.06751065 L26.9141325,11.4187713 C27.254091,9.55224639 27.0416169,7.5584584 26.1917205,5.73435449 L24.194464,7.26151125 C25.1718448,9.89161456 24.4494329,12.9459281 22.2821971,14.897295 C22.1972074,14.9397161 22.1122178,14.9821371 22.0272282,15.0245581 L22.069723,15.0669791 C21.9847333,15.1094002 21.9422385,15.1942422 21.8572489,15.2366632 C19.3500545,17.1456092 15.9504689,17.1031881 13.5282641,15.3639263 L11.4460179,16.9335041 C13.1883056,18.4182398 15.3980362,19.1818182 17.6077669,19.1818182 C19.6050234,19.1818182 21.6447748,18.5455029 23.3445676,17.2728722 C23.472052,17.1456092 23.6420313,17.0607671 23.7695158,16.9335041 C23.8970002,16.848662 23.9819899,16.806241 24.1094743,16.721399 L32.8634073,10.0612986 C35.2431172,8.23719473 35.7105602,4.84351304 33.883283,2.51035688 Z" id="Path"></path>
            </g>
        </g>
    </g>
</svg>